<svg width="64" height="64" viewBox="0 0 64 64" fill="none" xmlns="http://www.w3.org/2000/svg">
<path fill-rule="evenodd" clip-rule="evenodd" d="M32 57.8868C46.2969 57.8868 57.8868 46.2969 57.8868 32C57.8868 17.7031 46.2969 6.11321 32 6.11321C17.7031 6.11321 6.11321 17.7031 6.11321 32C6.11321 46.2969 17.7031 57.8868 32 57.8868ZM32 60C47.464 60 60 47.464 60 32C60 16.536 47.464 4 32 4C16.536 4 4 16.536 4 32C4 47.464 16.536 60 32 60Z" fill="#1A73E8"/>
<path fill-rule="evenodd" clip-rule="evenodd" d="M36.7523 46.8313C37.0226 47.4134 36.7698 48.1046 36.1876 48.3749C33.497 49.6243 30.8314 49.8537 28.6473 48.8511C26.432 47.8343 24.9876 45.678 24.5132 42.7521L26.8078 42.3801C27.1911 44.7439 28.2739 46.122 29.617 46.7385C30.9915 47.3694 32.9158 47.3313 35.2086 46.2666C35.7908 45.9963 36.4819 46.2491 36.7523 46.8313Z" fill="#1A73E8"/>
<path fill-rule="evenodd" clip-rule="evenodd" d="M33.5849 35.1698V30.4151H35.6981V37.283H29.8868V35.1698H33.5849Z" fill="#1A73E8"/>
<path d="M46.7924 25.1321C46.7924 26.2992 45.8463 27.2453 44.6792 27.2453C43.5122 27.2453 42.566 26.2992 42.566 25.1321C42.566 23.965 43.5122 23.0189 44.6792 23.0189C45.8463 23.0189 46.7924 23.965 46.7924 25.1321Z" fill="#1A73E8"/>
<path d="M21.434 25.1321C21.434 26.2992 20.4878 27.2453 19.3208 27.2453C18.1537 27.2453 17.2076 26.2992 17.2076 25.1321C17.2076 23.965 18.1537 23.0189 19.3208 23.0189C20.4878 23.0189 21.434 23.965 21.434 25.1321Z" fill="#1A73E8"/>
</svg>
