<svg width="64" height="64" viewBox="0 0 64 64" fill="none" xmlns="http://www.w3.org/2000/svg">
<path d="M47.4933 11.92C47.28 11.92 47.0666 11.8667 46.88 11.76C41.76 9.12 37.3333 8 32.0266 8C26.7466 8 21.7333 9.25333 17.1733 11.76C16.5333 12.1067 15.7333 11.8667 15.36 11.2267C15.0133 10.5867 15.2533 9.76 15.8933 9.41333C20.8533 6.72 26.2933 5.33333 32.0266 5.33333C37.7066 5.33333 42.6666 6.58667 48.1066 9.38667C48.7733 9.73333 49.0133 10.5333 48.6666 11.1733C48.4266 11.6533 47.9733 11.92 47.4933 11.92ZM9.33331 25.92C9.06664 25.92 8.79998 25.84 8.55998 25.68C7.94664 25.2533 7.81331 24.4267 8.23998 23.8133C10.88 20.08 14.24 17.1467 18.24 15.0933C26.6133 10.7733 37.3333 10.7467 45.7333 15.0667C49.7333 17.12 53.0933 20.0267 55.7333 23.7333C56.16 24.32 56.0266 25.1733 55.4133 25.6C54.8 26.0267 53.9733 25.8933 53.5466 25.28C51.1466 21.92 48.1066 19.28 44.5066 17.44C36.8533 13.52 27.0666 13.52 19.44 17.4667C15.8133 19.3333 12.7733 22 10.3733 25.36C10.16 25.7333 9.75998 25.92 9.33331 25.92ZM26 58.1067C25.6533 58.1067 25.3066 57.9733 25.0666 57.7067C22.7466 55.3867 21.4933 53.8933 19.7066 50.6667C17.8666 47.3867 16.9066 43.3867 16.9066 39.0933C16.9066 31.1733 23.68 24.72 32 24.72C40.32 24.72 47.0933 31.1733 47.0933 39.0933C47.0933 39.84 46.5066 40.4267 45.76 40.4267C45.0133 40.4267 44.4266 39.84 44.4266 39.0933C44.4266 32.64 38.8533 27.3867 32 27.3867C25.1466 27.3867 19.5733 32.64 19.5733 39.0933C19.5733 42.9333 20.4266 46.48 22.0533 49.36C23.76 52.4267 24.9333 53.7333 26.9866 55.8133C27.4933 56.3467 27.4933 57.1733 26.9866 57.7067C26.6933 57.9733 26.3466 58.1067 26 58.1067ZM45.12 53.1733C41.9466 53.1733 39.1466 52.3733 36.8533 50.8C32.88 48.1067 30.5066 43.7333 30.5066 39.0933C30.5066 38.3467 31.0933 37.76 31.84 37.76C32.5866 37.76 33.1733 38.3467 33.1733 39.0933C33.1733 42.8533 35.0933 46.4 38.3466 48.5867C40.24 49.8667 42.4533 50.48 45.12 50.48C45.76 50.48 46.8266 50.4 47.8933 50.2133C48.6133 50.08 49.3066 50.56 49.44 51.3067C49.5733 52.0267 49.0933 52.72 48.3466 52.8533C46.8266 53.1467 45.4933 53.1733 45.12 53.1733ZM39.76 58.6667C39.6533 58.6667 39.52 58.64 39.4133 58.6133C35.1733 57.44 32.4 55.8667 29.4933 53.0133C25.76 49.3067 23.7066 44.3733 23.7066 39.0933C23.7066 34.7733 27.3866 31.2533 31.92 31.2533C36.4533 31.2533 40.1333 34.7733 40.1333 39.0933C40.1333 41.9467 42.6133 44.2667 45.68 44.2667C48.7466 44.2667 51.2266 41.9467 51.2266 39.0933C51.2266 29.04 42.56 20.88 31.8933 20.88C24.32 20.88 17.3866 25.0933 14.2666 31.6267C13.2266 33.7867 12.6933 36.32 12.6933 39.0933C12.6933 41.1733 12.88 44.4533 14.48 48.72C14.7466 49.4133 14.4 50.1867 13.7066 50.4267C13.0133 50.6933 12.24 50.32 12 49.6533C10.6933 46.16 10.0533 42.6933 10.0533 39.0933C10.0533 35.8933 10.6666 32.9867 11.8666 30.4533C15.4133 23.0133 23.28 18.1867 31.8933 18.1867C44.0266 18.1867 53.8933 27.5467 53.8933 39.0667C53.8933 43.3867 50.2133 46.9067 45.68 46.9067C41.1466 46.9067 37.4666 43.3867 37.4666 39.0667C37.4666 36.2133 34.9866 33.8933 31.92 33.8933C28.8533 33.8933 26.3733 36.2133 26.3733 39.0667C26.3733 43.6267 28.1333 47.8933 31.36 51.0933C33.8933 53.6 36.32 54.9867 40.08 56.0267C40.8 56.2133 41.2 56.96 41.0133 57.6533C40.88 58.2667 40.32 58.6667 39.76 58.6667Z" fill="#1A73E8"/>
</svg>
