<svg width="1024" height="1024" viewBox="0 0 1024 1024" fill="none" xmlns="http://www.w3.org/2000/svg">
<g clip-path="url(#clip0_5650_884)">
<mask id="mask0_5650_884" style="mask-type:luminance" maskUnits="userSpaceOnUse" x="13" y="253" width="998" height="518">
<path d="M13.2205 253.221H1010.28V770.677H13.2205V253.221Z" fill="white"/>
</mask>
<g mask="url(#mask0_5650_884)">
<path d="M961.673 583.393C961.673 593.969 952.067 602.541 940.179 602.541H82.3533C70.4759 602.541 60.8533 593.969 60.8533 583.393V427.763C60.8533 417.187 70.4759 408.619 82.3533 408.619H940.179C952.067 408.619 961.673 417.187 961.673 427.763V583.393Z" fill="#008057"/>
</g>
<mask id="mask1_5650_884" style="mask-type:luminance" maskUnits="userSpaceOnUse" x="13" y="253" width="998" height="518">
<path d="M13.2205 253.221H1010.28V770.677H13.2205V253.221Z" fill="white"/>
</mask>
<g mask="url(#mask1_5650_884)">
<path d="M135.345 553.272V511.767C135.345 507.856 135.173 504.457 134.832 501.573C134.488 498.689 133.828 496.271 132.852 494.312C131.873 492.357 130.48 490.891 128.672 489.912C126.861 488.937 124.492 488.445 121.558 488.445C117.06 488.445 113.32 489.816 110.338 492.553C107.354 495.291 105.278 498.712 104.105 502.82V553.272H92.3717V479.939H102.492L102.785 488.887H103.372C106.012 485.757 109.066 483.191 112.538 481.187C116.008 479.183 120.532 478.18 126.105 478.18C130.798 478.18 134.634 479.084 137.618 480.892C140.6 482.703 142.921 485.856 144.585 490.353C146.833 486.539 149.938 483.557 153.898 481.407C157.858 479.256 162.332 478.18 167.318 478.18C171.425 478.18 174.894 478.644 177.732 479.573C180.566 480.503 182.913 482.139 184.772 484.487C186.628 486.833 187.973 490.011 188.805 494.02C189.634 498.029 190.052 503.112 190.052 509.272V553.272H178.318V509.127C178.318 505.605 178.146 502.551 177.805 499.96C177.461 497.369 176.778 495.217 175.752 493.505C174.725 491.796 173.306 490.524 171.498 489.692C169.688 488.863 167.318 488.445 164.385 488.445C159.494 488.445 155.681 489.816 152.945 492.553C150.206 495.291 148.252 499.203 147.078 504.285V553.272H135.345Z" fill="white"/>
</g>
<mask id="mask2_5650_884" style="mask-type:luminance" maskUnits="userSpaceOnUse" x="13" y="253" width="998" height="518">
<path d="M13.2205 253.221H1010.28V770.677H13.2205V253.221Z" fill="white"/>
</mask>
<g mask="url(#mask2_5650_884)">
<path d="M243.732 489.767C237.961 489.767 233.341 491.284 229.872 494.312C226.4 497.344 224.321 502.525 223.638 509.859H260.012C260.012 502.429 258.593 497.223 255.758 494.239C252.921 491.257 248.913 489.767 243.732 489.767ZM268.958 548.433C266.025 550.779 262.333 552.637 257.885 554.005C253.434 555.373 248.718 556.06 243.732 556.06C238.158 556.06 233.318 555.155 229.212 553.347C225.105 551.537 221.732 548.945 219.092 545.572C216.452 542.199 214.494 537.433 213.225 531.272C211.953 525.112 211.318 520.665 211.318 517.927C211.318 505.411 214.105 495.877 219.678 489.327C225.252 482.777 233.22 479.499 243.585 479.499C246.908 479.499 250.233 479.865 253.558 480.6C256.881 481.332 259.865 482.727 262.505 484.779C265.145 486.833 267.294 489.743 268.958 493.505C270.62 497.272 271.452 502.233 271.452 508.393C271.452 511.619 271.158 515.189 270.572 519.1H223.492C223.492 520.272 223.932 523.256 224.812 528.045C225.692 532.839 227.06 536.383 228.918 538.68C230.774 540.977 233.194 542.739 236.178 543.96C239.16 545.184 242.801 545.793 247.105 545.793C250.428 545.793 253.753 545.205 257.078 544.032C260.401 542.859 262.894 541.491 264.558 539.927L268.958 548.433Z" fill="white"/>
</g>
<mask id="mask3_5650_884" style="mask-type:luminance" maskUnits="userSpaceOnUse" x="13" y="253" width="998" height="518">
<path d="M13.2205 253.221H1010.28V770.677H13.2205V253.221Z" fill="white"/>
</mask>
<g mask="url(#mask3_5650_884)">
<path d="M320.584 544.767C325.571 544.767 329.531 543.471 332.464 540.879C335.396 538.289 337.4 534.352 338.477 529.072V492.699C336.717 491.332 334.712 490.352 332.464 489.767C330.213 489.18 327.232 488.887 323.517 488.887C316.771 488.887 311.491 491.111 307.677 495.56C303.864 500.011 301.957 507.123 301.957 516.9C301.957 520.909 302.273 524.624 302.911 528.045C303.545 531.469 304.597 534.404 306.064 536.847C307.531 539.291 309.46 541.223 311.857 542.639C314.252 544.057 317.16 544.767 320.584 544.767ZM350.211 528.045C350.211 533.032 350.259 537.556 350.357 541.612C350.453 545.672 350.893 549.656 351.676 553.567H343.757L340.824 543.153H340.237C338.279 546.576 335.445 549.411 331.729 551.66C328.013 553.907 323.664 555.032 318.676 555.032C308.899 555.032 301.639 551.952 296.897 545.793C292.153 539.632 289.784 530.004 289.784 516.9C289.784 504.384 292.74 494.876 298.657 488.372C304.572 481.871 312.712 478.619 323.077 478.619C326.693 478.619 329.553 478.816 331.657 479.207C333.759 479.599 336.032 480.233 338.477 481.112V450.605H350.211V528.045Z" fill="white"/>
</g>
<mask id="mask4_5650_884" style="mask-type:luminance" maskUnits="userSpaceOnUse" x="13" y="253" width="998" height="518">
<path d="M13.2205 253.221H1010.28V770.677H13.2205V253.221Z" fill="white"/>
</mask>
<g mask="url(#mask4_5650_884)">
<path d="M379.25 479.939H390.983V553.273H379.25V479.939ZM376.755 457.646C376.755 455.398 379.444 452.659 384.822 449.433C387.17 449.433 390.004 452.171 393.33 457.646C390.004 462.83 387.17 465.419 384.822 465.419C379.444 462.486 376.755 459.897 376.755 457.646Z" fill="white"/>
</g>
<mask id="mask5_5650_884" style="mask-type:luminance" maskUnits="userSpaceOnUse" x="13" y="253" width="998" height="518">
<path d="M13.2205 253.221H1010.28V770.677H13.2205V253.221Z" fill="white"/>
</mask>
<g mask="url(#mask5_5650_884)">
<path d="M473.846 544.618C468.37 549.313 463.628 552.222 459.62 553.346C455.609 554.469 451.406 555.033 447.006 555.033C441.334 555.033 436.542 554.128 432.633 552.32C428.721 550.51 425.52 547.92 423.026 544.545C420.534 541.172 418.722 537.117 417.6 532.372C416.476 527.632 415.913 522.376 415.913 516.605C415.913 504.19 418.65 494.68 424.126 488.08C429.601 481.48 437.473 478.18 447.74 478.18C452.433 478.18 456.417 478.546 459.693 479.28C462.968 480.013 467.294 481.75 472.673 484.486L465.193 492.553C462.942 491.284 460.449 490.278 457.713 489.545C454.976 488.813 452.041 488.445 448.913 488.445C435.029 488.445 428.086 497.833 428.086 516.605C428.086 520.322 428.453 523.866 429.186 527.24C429.92 530.612 431.142 533.596 432.853 536.186C434.562 538.777 436.814 540.857 439.6 542.42C442.386 543.984 445.833 544.766 449.94 544.766C453.46 544.766 456.613 544.229 459.4 543.153C462.186 542.078 464.46 540.857 466.22 539.486L473.846 544.618Z" fill="white"/>
</g>
<mask id="mask6_5650_884" style="mask-type:luminance" maskUnits="userSpaceOnUse" x="13" y="253" width="998" height="518">
<path d="M13.2205 253.221H1010.28V770.677H13.2205V253.221Z" fill="white"/>
</mask>
<g mask="url(#mask6_5650_884)">
<path d="M507.724 544.18C510.461 544.18 513.248 543.813 516.085 543.08C518.919 542.346 521.119 541.418 522.684 540.293C524.248 539.17 525.544 537.924 526.571 536.553C527.597 535.185 528.355 533.865 528.844 532.594V520.42C527.475 520.322 526.081 520.25 524.664 520.2C523.247 520.152 521.852 520.126 520.484 520.126C516.085 520.126 511.635 520.298 507.139 520.64C502.64 520.984 499.437 522.425 497.531 524.966C495.624 527.51 494.671 530.004 494.671 532.445C494.671 535.87 495.892 538.68 498.337 540.878C500.78 543.08 503.911 544.18 507.724 544.18ZM488.951 485.366C492.665 483.117 496.992 481.457 501.931 480.38C506.867 479.305 512.027 478.766 517.404 478.766C522.487 478.766 526.571 479.452 529.651 480.82C532.731 482.19 535.077 483.973 536.691 486.172C538.305 488.373 539.379 490.793 539.919 493.433C540.453 496.073 540.724 498.712 540.724 501.353C540.724 507.22 540.577 512.938 540.284 518.513C539.991 524.086 539.844 529.366 539.844 534.353C539.844 537.972 540.504 541.466 541.824 544.838C543.144 548.212 545.271 551.122 548.204 553.566H537.791C534.759 553.566 532.217 550.145 530.164 543.3H529.431C528.551 544.67 527.451 546.013 526.131 547.333C524.811 548.653 523.22 549.826 521.364 550.853C519.505 551.878 517.012 552.737 513.884 553.42C510.753 554.101 507.625 554.445 504.497 554.445C501.367 554.445 498.459 553.956 495.771 552.98C493.081 552.004 490.759 550.61 488.805 548.8C486.847 546.99 485.308 544.817 484.184 542.272C483.059 539.732 482.497 536.846 482.497 533.618C482.497 529.318 484.159 524.87 487.484 520.272C490.807 515.677 495.5 513.013 501.564 512.278C507.625 511.545 514.031 511.18 520.777 511.18H524.811C526.131 511.18 527.475 511.277 528.844 511.473C529.139 508.54 529.284 505.9 529.284 503.553C529.284 498.177 528.207 494.412 526.057 492.261C523.905 490.11 519.993 489.033 514.324 489.033C512.66 489.033 510.877 489.156 508.972 489.4C507.064 489.645 505.107 489.986 503.104 490.428C501.099 490.866 499.193 491.405 497.384 492.04C495.575 492.677 493.985 493.384 492.617 494.166L488.951 485.366Z" fill="white"/>
</g>
<mask id="mask7_5650_884" style="mask-type:luminance" maskUnits="userSpaceOnUse" x="13" y="253" width="998" height="518">
<path d="M13.2205 253.221H1010.28V770.677H13.2205V253.221Z" fill="white"/>
</mask>
<g mask="url(#mask7_5650_884)">
<path d="M579.883 535.233C579.883 538.656 580.469 541.1 581.643 542.566C582.816 544.033 584.477 544.766 586.631 544.766C587.9 544.766 589.269 544.67 590.737 544.473C592.203 544.277 593.864 543.838 595.723 543.153L597.043 552.393C595.477 553.177 593.303 553.81 590.517 554.3C587.729 554.788 585.309 555.033 583.256 555.033C578.856 555.033 575.239 553.785 572.404 551.293C569.567 548.8 568.149 544.572 568.149 538.605V450.606H579.883V535.233Z" fill="white"/>
</g>
<mask id="mask8_5650_884" style="mask-type:luminance" maskUnits="userSpaceOnUse" x="13" y="253" width="998" height="518">
<path d="M13.2205 253.221H1010.28V770.677H13.2205V253.221Z" fill="white"/>
</mask>
<g mask="url(#mask8_5650_884)">
<path d="M502.001 699.861C504.241 699.861 506.521 699.561 508.841 698.961C511.161 698.361 512.961 697.602 514.243 696.681C515.521 695.762 516.583 694.742 517.421 693.621C518.261 692.501 518.88 691.422 519.281 690.382V680.421C518.16 680.342 517.021 680.282 515.863 680.241C514.7 680.202 513.561 680.181 512.441 680.181C508.841 680.181 505.2 680.322 501.523 680.602C497.841 680.883 495.221 682.061 493.661 684.141C492.101 686.222 491.321 688.262 491.321 690.262C491.321 693.062 492.321 695.361 494.321 697.162C496.32 698.961 498.881 699.861 502.001 699.861ZM486.641 651.741C489.681 649.902 493.221 648.543 497.261 647.662C501.301 646.782 505.521 646.341 509.921 646.341C514.081 646.341 517.421 646.902 519.941 648.022C522.463 649.143 524.381 650.602 525.701 652.401C527.023 654.201 527.901 656.182 528.341 658.341C528.78 660.501 529.001 662.662 529.001 664.822C529.001 669.621 528.881 674.301 528.641 678.861C528.401 683.421 528.281 687.741 528.281 691.822C528.281 694.781 528.821 697.641 529.901 700.401C530.981 703.162 532.721 705.543 535.121 707.542H526.601C524.121 707.542 522.041 704.742 520.363 699.141H519.761C519.041 700.262 518.141 701.361 517.061 702.442C515.981 703.521 514.681 704.481 513.161 705.322C511.64 706.162 509.601 706.862 507.041 707.421C504.48 707.981 501.92 708.262 499.363 708.262C496.801 708.262 494.42 707.859 492.221 707.061C490.021 706.262 488.121 705.122 486.523 703.641C484.92 702.162 483.66 700.383 482.743 698.301C481.821 696.222 481.363 693.861 481.363 691.222C481.363 687.702 482.721 684.062 485.441 680.301C488.16 676.542 492 674.361 496.963 673.762C501.92 673.162 507.161 672.861 512.683 672.861H515.981C517.061 672.861 518.16 672.942 519.281 673.102C519.523 670.701 519.641 668.542 519.641 666.621C519.641 662.222 518.76 659.142 517.001 657.382C515.241 655.622 512.04 654.741 507.401 654.741C506.04 654.741 504.583 654.842 503.023 655.042C501.463 655.242 499.861 655.522 498.221 655.882C496.581 656.241 495.021 656.682 493.541 657.201C492.06 657.722 490.76 658.302 489.641 658.942L486.641 651.741Z" fill="#656263"/>
</g>
<mask id="mask9_5650_884" style="mask-type:luminance" maskUnits="userSpaceOnUse" x="13" y="253" width="998" height="518">
<path d="M13.2205 253.221H1010.28V770.677H13.2205V253.221Z" fill="white"/>
</mask>
<g mask="url(#mask9_5650_884)">
<path d="M592.359 700.221C587.879 704.061 583.998 706.443 580.721 707.36C577.439 708.28 573.999 708.741 570.399 708.741C565.759 708.741 561.838 708 558.639 706.521C555.439 705.041 552.821 702.92 550.779 700.161C548.739 697.401 547.259 694.083 546.339 690.2C545.419 686.321 544.959 682.023 544.959 677.301C544.959 667.141 547.198 659.36 551.679 653.961C556.159 648.561 562.601 645.86 570.999 645.86C574.839 645.86 578.099 646.161 580.779 646.761C583.459 647.36 586.998 648.783 591.399 651.023L585.279 657.623C583.439 656.583 581.398 655.761 579.161 655.161C576.919 654.561 574.519 654.261 571.959 654.261C560.599 654.261 554.919 661.941 554.919 677.301C554.919 680.343 555.221 683.241 555.821 686.001C556.419 688.761 557.419 691.201 558.821 693.321C560.219 695.441 562.059 697.141 564.339 698.42C566.619 699.701 569.441 700.341 572.799 700.341C575.679 700.341 578.259 699.903 580.541 699.021C582.821 698.141 584.679 697.141 586.119 696.021L592.359 700.221Z" fill="#656263"/>
</g>
<mask id="mask10_5650_884" style="mask-type:luminance" maskUnits="userSpaceOnUse" x="13" y="253" width="998" height="518">
<path d="M13.2205 253.221H1010.28V770.677H13.2205V253.221Z" fill="white"/>
</mask>
<g mask="url(#mask10_5650_884)">
<path d="M618.038 699.861C620.278 699.861 622.558 699.561 624.878 698.961C627.198 698.361 628.998 697.602 630.279 696.681C631.558 695.762 632.619 694.742 633.458 693.621C634.298 692.501 634.916 691.422 635.318 690.382V680.421C634.196 680.342 633.058 680.282 631.899 680.241C630.736 680.202 629.598 680.181 628.478 680.181C624.878 680.181 621.236 680.322 617.559 680.602C613.878 680.883 611.258 682.061 609.698 684.141C608.138 686.222 607.358 688.262 607.358 690.262C607.358 693.062 608.358 695.361 610.358 697.162C612.356 698.961 614.918 699.861 618.038 699.861ZM602.678 651.741C605.718 649.902 609.258 648.543 613.298 647.662C617.338 646.782 621.558 646.341 625.958 646.341C630.118 646.341 633.458 646.902 635.978 648.022C638.499 649.143 640.418 650.602 641.738 652.401C643.059 654.201 643.938 656.182 644.378 658.341C644.816 660.501 645.038 662.662 645.038 664.822C645.038 669.621 644.918 674.301 644.678 678.861C644.438 683.421 644.318 687.741 644.318 691.822C644.318 694.781 644.858 697.641 645.938 700.401C647.018 703.162 648.758 705.543 651.158 707.542H642.638C640.158 707.542 638.078 704.742 636.399 699.141H635.798C635.078 700.262 634.178 701.361 633.098 702.442C632.018 703.521 630.718 704.481 629.198 705.322C627.676 706.162 625.638 706.862 623.078 707.421C620.516 707.981 617.956 708.262 615.399 708.262C612.838 708.262 610.456 707.859 608.258 707.061C606.058 706.262 604.158 705.122 602.559 703.641C600.956 702.162 599.696 700.383 598.779 698.301C597.858 696.222 597.399 693.861 597.399 691.222C597.399 687.702 598.758 684.062 601.478 680.301C604.196 676.542 608.036 674.361 612.999 673.762C617.956 673.162 623.198 672.861 628.719 672.861H632.018C633.098 672.861 634.196 672.942 635.318 673.102C635.559 670.701 635.678 668.542 635.678 666.621C635.678 662.222 634.796 659.142 633.038 657.382C631.278 655.622 628.076 654.741 623.438 654.741C622.076 654.741 620.619 654.842 619.059 655.042C617.499 655.242 615.898 655.522 614.258 655.882C612.618 656.241 611.058 656.682 609.578 657.201C608.096 657.722 606.796 658.302 605.678 658.942L602.678 651.741Z" fill="#656263"/>
</g>
<mask id="mask11_5650_884" style="mask-type:luminance" maskUnits="userSpaceOnUse" x="13" y="253" width="998" height="518">
<path d="M13.2205 253.221H1010.28V770.677H13.2205V253.221Z" fill="white"/>
</mask>
<g mask="url(#mask11_5650_884)">
<path d="M686.197 700.341C690.278 700.341 693.517 699.281 695.917 697.161C698.317 695.042 699.955 691.821 700.837 687.501V657.741C699.397 656.622 697.757 655.821 695.917 655.341C694.075 654.861 691.637 654.622 688.597 654.622C683.077 654.622 678.757 656.442 675.637 660.081C672.517 663.722 670.957 669.542 670.957 677.541C670.957 680.822 671.217 683.862 671.737 686.661C672.257 689.462 673.117 691.862 674.317 693.861C675.517 695.862 677.095 697.442 679.058 698.601C681.015 699.761 683.395 700.341 686.197 700.341ZM710.438 686.661C710.438 690.741 710.477 694.442 710.558 697.761C710.635 701.082 710.997 704.342 711.637 707.541H705.157L702.757 699.021H702.278C700.675 701.822 698.357 704.142 695.317 705.98C692.277 707.82 688.718 708.741 684.637 708.741C676.637 708.741 670.697 706.221 666.817 701.181C662.937 696.141 660.998 688.261 660.998 677.541C660.998 667.302 663.415 659.522 668.257 654.201C673.097 648.882 679.757 646.221 688.237 646.221C691.195 646.221 693.535 646.382 695.257 646.701C696.977 647.022 698.835 647.541 700.837 648.261V623.301H710.438V686.661Z" fill="#656263"/>
</g>
<mask id="mask12_5650_884" style="mask-type:luminance" maskUnits="userSpaceOnUse" x="13" y="253" width="998" height="518">
<path d="M13.2205 253.221H1010.28V770.677H13.2205V253.221Z" fill="white"/>
</mask>
<g mask="url(#mask12_5650_884)">
<path d="M753.275 655.341C748.553 655.341 744.773 656.584 741.935 659.061C739.093 661.541 737.393 665.781 736.835 671.781H766.595C766.595 665.702 765.435 661.442 763.115 659.001C760.795 656.561 757.515 655.341 753.275 655.341ZM773.915 703.341C771.516 705.261 768.495 706.781 764.856 707.901C761.213 709.021 757.356 709.581 753.275 709.581C748.715 709.581 744.755 708.84 741.395 707.361C738.035 705.881 735.275 703.761 733.115 701.001C730.955 698.241 729.355 694.341 728.315 689.301C727.275 684.261 726.755 680.621 726.755 678.381C726.755 668.142 729.035 660.341 733.595 654.981C738.155 649.622 744.675 646.941 753.155 646.941C755.873 646.941 758.593 647.241 761.315 647.841C764.033 648.441 766.475 649.582 768.636 651.261C770.796 652.941 772.553 655.322 773.915 658.401C775.275 661.481 775.955 665.541 775.955 670.581C775.955 673.221 775.715 676.142 775.235 679.341H736.715C736.715 680.301 737.076 682.742 737.796 686.661C738.516 690.582 739.635 693.481 741.155 695.361C742.673 697.242 744.653 698.682 747.095 699.681C749.533 700.682 752.515 701.181 756.035 701.181C758.753 701.181 761.473 700.701 764.195 699.741C766.913 698.781 768.953 697.661 770.315 696.381L773.915 703.341Z" fill="#656263"/>
</g>
<mask id="mask13_5650_884" style="mask-type:luminance" maskUnits="userSpaceOnUse" x="13" y="253" width="998" height="518">
<path d="M13.2205 253.221H1010.28V770.677H13.2205V253.221Z" fill="white"/>
</mask>
<g mask="url(#mask13_5650_884)">
<path d="M827.435 707.301V673.341C827.435 670.142 827.295 667.362 827.016 665.001C826.735 662.642 826.194 660.662 825.395 659.061C824.595 657.462 823.455 656.262 821.975 655.461C820.494 654.662 818.555 654.262 816.155 654.262C812.474 654.262 809.414 655.383 806.975 657.622C804.534 659.862 802.835 662.661 801.875 666.021V707.301H792.275V647.301H800.555L800.796 654.622H801.275C803.435 652.061 805.935 649.962 808.775 648.322C811.614 646.683 815.315 645.861 819.875 645.861C823.715 645.861 826.854 646.602 829.296 648.082C831.735 649.562 833.634 652.143 834.995 655.822C836.835 652.701 839.375 650.262 842.615 648.501C845.855 646.743 849.516 645.861 853.595 645.861C856.956 645.861 859.795 646.242 862.115 647.001C864.435 647.762 866.354 649.102 867.875 651.022C869.395 652.941 870.495 655.543 871.176 658.822C871.854 662.103 872.195 666.262 872.195 671.301V707.301H862.595V671.181C862.595 668.301 862.455 665.802 862.176 663.681C861.895 661.562 861.335 659.802 860.495 658.401C859.655 657.002 858.495 655.962 857.016 655.281C855.534 654.603 853.595 654.262 851.195 654.262C847.194 654.262 844.074 655.383 841.835 657.622C839.595 659.862 837.995 663.062 837.035 667.221V707.301H827.435Z" fill="#656263"/>
</g>
<mask id="mask14_5650_884" style="mask-type:luminance" maskUnits="userSpaceOnUse" x="13" y="253" width="998" height="518">
<path d="M13.2205 253.221H1010.28V770.677H13.2205V253.221Z" fill="white"/>
</mask>
<g mask="url(#mask14_5650_884)">
<path d="M911.915 697.7H912.515L926.795 647.3H936.515L918.755 701.18C917.394 705.102 916.055 708.9 914.735 712.58C913.415 716.26 911.955 719.542 910.355 722.42C908.754 725.3 906.954 727.6 904.955 729.322C902.955 731.04 900.635 731.9 897.997 731.9C895.115 731.9 891.834 730.58 888.157 727.942L892.597 722.42C893.634 722.82 894.635 723.02 895.597 723.02C897.834 723.02 899.995 721.839 902.075 719.48C904.155 717.12 905.875 713.062 907.235 707.3L883.115 647.3H894.157L911.915 697.7Z" fill="#656263"/>
</g>
<mask id="mask15_5650_884" style="mask-type:luminance" maskUnits="userSpaceOnUse" x="13" y="253" width="998" height="518">
<path d="M13.2205 253.221H1010.28V770.677H13.2205V253.221Z" fill="white"/>
</mask>
<g mask="url(#mask15_5650_884)">
<path d="M118.534 312.421C114.454 312.421 111.233 313.483 108.874 315.601C106.514 317.721 104.854 320.941 103.894 325.261V355.021C105.334 356.143 106.973 357.001 108.814 357.601C110.654 358.201 113.093 358.501 116.134 358.501C121.654 358.501 126.034 356.443 129.274 352.321C132.514 348.201 134.134 342.141 134.134 334.141C134.134 330.861 133.853 327.883 133.294 325.201C132.734 322.521 131.834 320.241 130.594 318.361C129.353 316.483 127.754 315.021 125.794 313.981C123.833 312.943 121.414 312.421 118.534 312.421ZM94.2944 305.461H102.694V312.661H103.174C105.014 309.861 107.393 307.723 110.314 306.241C113.234 304.761 116.573 304.021 120.334 304.021C128.333 304.021 134.294 306.381 138.214 311.101C142.133 315.823 144.094 323.541 144.094 334.261C144.094 339.301 143.434 343.843 142.114 347.881C140.794 351.921 138.934 355.341 136.534 358.141C134.134 360.943 131.234 363.103 127.834 364.621C124.433 366.14 120.653 366.901 116.494 366.901C113.534 366.901 111.194 366.721 109.474 366.361C107.753 366.001 105.893 365.383 103.894 364.501V389.461H94.2944V305.461Z" fill="#656263"/>
</g>
<mask id="mask16_5650_884" style="mask-type:luminance" maskUnits="userSpaceOnUse" x="13" y="253" width="998" height="518">
<path d="M13.2205 253.221H1010.28V770.677H13.2205V253.221Z" fill="white"/>
</mask>
<g mask="url(#mask16_5650_884)">
<path d="M173.853 305.461V339.661C173.853 342.781 174.033 345.522 174.393 347.881C174.753 350.241 175.372 352.201 176.253 353.761C177.132 355.321 178.332 356.502 179.853 357.301C181.372 358.101 183.292 358.501 185.613 358.501C187.773 358.501 189.693 358.161 191.373 357.481C193.053 356.802 194.553 355.861 195.873 354.661C197.193 353.461 198.352 352.081 199.353 350.521C200.352 348.961 201.172 347.301 201.813 345.541V305.461H211.413V348.421C211.413 351.301 211.512 354.282 211.713 357.361C211.912 360.441 213.333 363.141 215.973 365.461H207.693C205.372 365.461 204.052 362.301 203.733 355.981H203.133C201.292 359.101 198.813 361.702 195.693 363.781C192.573 365.86 188.613 366.901 183.813 366.901C180.612 366.901 177.793 366.52 175.353 365.761C172.912 365.001 170.872 363.661 169.233 361.741C167.592 359.821 166.353 357.241 165.513 354.001C164.673 350.761 164.253 346.662 164.253 341.701V305.461H173.853Z" fill="#656263"/>
</g>
<mask id="mask17_5650_884" style="mask-type:luminance" maskUnits="userSpaceOnUse" x="13" y="253" width="998" height="518">
<path d="M13.2205 253.221H1010.28V770.677H13.2205V253.221Z" fill="white"/>
</mask>
<g mask="url(#mask17_5650_884)">
<path d="M264.211 314.701C261.811 313.902 259.531 313.501 257.371 313.501C253.931 313.501 251.21 314.442 249.211 316.321C247.211 318.201 245.971 320.581 245.491 323.461V365.461H235.891V305.461H244.531L244.411 312.781H244.891C246.41 310.062 248.231 307.962 250.351 306.481C252.47 305.001 255.17 304.261 258.451 304.261C260.77 304.261 263.371 304.662 266.251 305.461L264.211 314.701Z" fill="#656263"/>
</g>
<mask id="mask18_5650_884" style="mask-type:luminance" maskUnits="userSpaceOnUse" x="13" y="253" width="998" height="518">
<path d="M13.2205 253.221H1010.28V770.677H13.2205V253.221Z" fill="white"/>
</mask>
<g mask="url(#mask18_5650_884)">
<path d="M291.331 305.461V339.661C291.331 342.781 291.511 345.522 291.871 347.881C292.231 350.241 292.849 352.201 293.731 353.761C294.609 355.321 295.809 356.502 297.331 357.301C298.849 358.101 300.769 358.501 303.092 358.501C305.251 358.501 307.169 358.161 308.849 357.481C310.529 356.802 312.029 355.861 313.349 354.661C314.669 353.461 315.829 352.081 316.831 350.521C317.829 348.961 318.649 347.301 319.289 345.541V305.461H328.891V348.421C328.891 351.301 328.991 354.282 329.191 357.361C329.388 360.441 330.811 363.141 333.451 365.461H325.169C322.849 365.461 321.529 362.301 321.212 355.981H320.609C318.769 359.101 316.289 361.702 313.169 363.781C310.051 365.86 306.092 366.901 301.289 366.901C298.089 366.901 295.271 366.52 292.831 365.761C290.389 365.001 288.349 363.661 286.711 361.741C285.069 359.821 283.831 357.241 282.991 354.001C282.151 350.761 281.731 346.662 281.731 341.701V305.461H291.331Z" fill="#656263"/>
</g>
<mask id="mask19_5650_884" style="mask-type:luminance" maskUnits="userSpaceOnUse" x="13" y="253" width="998" height="518">
<path d="M13.2205 253.221H1010.28V770.677H13.2205V253.221Z" fill="white"/>
</mask>
<g mask="url(#mask19_5650_884)">
<path d="M379.769 349.141C379.769 346.741 379.049 344.862 377.609 343.501C376.169 342.141 374.387 341.002 372.269 340.081C370.147 339.162 367.829 338.281 365.307 337.441C362.789 336.601 360.466 335.521 358.349 334.201C356.227 332.881 354.449 331.182 353.009 329.101C351.569 327.022 350.849 324.222 350.849 320.701C350.849 314.941 352.487 310.722 355.769 308.041C359.047 305.362 363.607 304.021 369.449 304.021C373.769 304.021 377.387 304.402 380.307 305.161C383.227 305.922 385.769 306.822 387.927 307.861L385.647 315.781C383.806 314.902 381.586 314.122 378.987 313.441C376.387 312.762 373.607 312.421 370.647 312.421C367.127 312.421 364.547 313.021 362.907 314.221C361.267 315.421 360.449 317.502 360.449 320.461C360.449 322.542 361.169 324.162 362.609 325.321C364.049 326.482 365.827 327.522 367.949 328.441C370.067 329.362 372.389 330.262 374.907 331.141C377.427 332.022 379.747 333.181 381.867 334.621C383.987 336.061 385.769 337.882 387.207 340.081C388.647 342.282 389.367 345.181 389.367 348.781C389.367 351.342 388.949 353.742 388.109 355.981C387.269 358.222 385.966 360.141 384.207 361.741C382.447 363.342 380.267 364.602 377.669 365.521C375.067 366.439 372.007 366.901 368.487 366.901C363.927 366.901 360.047 366.461 356.849 365.581C353.647 364.702 350.967 363.661 348.807 362.461L351.687 354.301C353.527 355.342 355.927 356.302 358.889 357.181C361.847 358.062 364.847 358.501 367.889 358.501C371.327 358.501 374.167 357.822 376.407 356.461C378.646 355.102 379.769 352.662 379.769 349.141Z" fill="#656263"/>
</g>
<mask id="mask20_5650_884" style="mask-type:luminance" maskUnits="userSpaceOnUse" x="13" y="253" width="998" height="518">
<path d="M13.2205 253.221H1010.28V770.677H13.2205V253.221Z" fill="white"/>
</mask>
<g mask="url(#mask20_5650_884)">
<path d="M797.18 593.411C797.044 593.411 796.906 593.406 796.768 593.393C794.558 593.199 792.792 591.477 792.541 589.273L778.888 469.259L767.826 564.906C767.592 566.947 766.046 568.595 764.024 568.961C762.002 569.327 759.977 568.329 759.04 566.498L752.157 553.081H730.256C728.668 553.081 727.189 552.273 726.329 550.938C720.728 542.225 714.56 537.681 707.997 537.433C695.753 536.954 684.785 551.086 684.678 551.229C683.796 552.394 682.418 553.081 680.956 553.081H623.098V543.747H678.758C682.786 539.119 694.273 527.59 708.352 528.106C717.51 528.453 725.706 533.713 732.742 543.747H755.009C756.76 543.747 758.364 544.726 759.161 546.285L760.322 548.55L774.29 427.771C774.562 425.415 776.556 423.639 778.926 423.639H778.929C781.302 423.642 783.294 425.422 783.562 427.779L799.224 565.446L804.87 546.421C805.458 544.439 807.28 543.082 809.344 543.082H809.412L852.333 543.705C856.21 535.811 867.593 515.805 883.269 515.805H883.388C894.284 515.875 903.681 525.095 912.064 543.969H936.893V553.302H908.992C907.109 553.302 905.412 552.17 904.686 550.435C897.792 533.931 890.406 525.183 883.328 525.138H883.27C872.808 525.138 862.396 543.738 859.569 550.269C858.829 551.978 857.145 553.081 855.286 553.081H855.218L812.812 552.466L801.652 590.073C801.058 592.066 799.228 593.411 797.18 593.411Z" fill="white"/>
</g>
</g>
<defs>
<clipPath id="clip0_5650_884">
<rect width="989.502" height="509.897" fill="white" transform="translate(17 257)"/>
</clipPath>
</defs>
</svg>
