<?xml version="1.0" encoding="UTF-8" standalone="no"?>
<!-- Created with Inkscape (http://www.inkscape.org/) -->

<svg
   version="1.1"
   id="svg1"
   width="989.50189"
   height="509.89655"
   viewBox="0 0 989.50189 509.89655"
   sodipodi:docname="purus_logo_transparent.svg"
   inkscape:version="1.3.2 (091e20e, 2023-11-25)"
   xmlns:inkscape="http://www.inkscape.org/namespaces/inkscape"
   xmlns:sodipodi="http://sodipodi.sourceforge.net/DTD/sodipodi-0.dtd"
   xmlns="http://www.w3.org/2000/svg"
   xmlns:svg="http://www.w3.org/2000/svg">
  <defs
     id="defs1">
    <clipPath
       clipPathUnits="userSpaceOnUse"
       id="clipPath2">
      <path
         d="M 0,388.092 H 747.796 V 0 H 0 Z"
         transform="translate(-711.33952,-140.46251)"
         id="path2" />
    </clipPath>
    <clipPath
       clipPathUnits="userSpaceOnUse"
       id="clipPath4">
      <path
         d="M 0,388.092 H 747.796 V 0 H 0 Z"
         transform="translate(-91.593402,-163.0533)"
         id="path4" />
    </clipPath>
    <clipPath
       clipPathUnits="userSpaceOnUse"
       id="clipPath6">
      <path
         d="M 0,388.092 H 747.796 V 0 H 0 Z"
         transform="translate(-172.88341,-210.68231)"
         id="path6" />
    </clipPath>
    <clipPath
       clipPathUnits="userSpaceOnUse"
       id="clipPath8">
      <path
         d="M 0,388.092 H 747.796 V 0 H 0 Z"
         transform="translate(-230.5226,-169.43231)"
         id="path8" />
    </clipPath>
    <clipPath
       clipPathUnits="userSpaceOnUse"
       id="clipPath10">
      <path
         d="M 0,388.092 H 747.796 V 0 H 0 Z"
         id="path10" />
    </clipPath>
    <clipPath
       clipPathUnits="userSpaceOnUse"
       id="clipPath12">
      <path
         d="M 0,388.092 H 747.796 V 0 H 0 Z"
         transform="translate(-345.46941,-169.54361)"
         id="path12" />
    </clipPath>
    <clipPath
       clipPathUnits="userSpaceOnUse"
       id="clipPath14">
      <path
         d="M 0,388.092 H 747.796 V 0 H 0 Z"
         transform="translate(-370.87761,-169.87271)"
         id="path14" />
    </clipPath>
    <clipPath
       clipPathUnits="userSpaceOnUse"
       id="clipPath16">
      <path
         d="M 0,388.092 H 747.796 V 0 H 0 Z"
         transform="translate(-424.99671,-176.5826)"
         id="path16" />
    </clipPath>
    <clipPath
       clipPathUnits="userSpaceOnUse"
       id="clipPath18">
      <path
         d="M 0,388.092 H 747.796 V 0 H 0 Z"
         transform="translate(-366.58561,-53.111901)"
         id="path18" />
    </clipPath>
    <clipPath
       clipPathUnits="userSpaceOnUse"
       id="clipPath20">
      <path
         d="M 0,388.092 H 747.796 V 0 H 0 Z"
         transform="translate(-434.35411,-52.841399)"
         id="path20" />
    </clipPath>
    <clipPath
       clipPathUnits="userSpaceOnUse"
       id="clipPath22">
      <path
         d="M 0,388.092 H 747.796 V 0 H 0 Z"
         transform="translate(-453.61291,-53.111901)"
         id="path22" />
    </clipPath>
    <clipPath
       clipPathUnits="userSpaceOnUse"
       id="clipPath24">
      <path
         d="M 0,388.092 H 747.796 V 0 H 0 Z"
         transform="translate(-504.73211,-52.751601)"
         id="path24" />
    </clipPath>
    <clipPath
       clipPathUnits="userSpaceOnUse"
       id="clipPath26">
      <path
         d="M 0,388.092 H 747.796 V 0 H 0 Z"
         transform="translate(-555.04061,-86.501602)"
         id="path26" />
    </clipPath>
    <clipPath
       clipPathUnits="userSpaceOnUse"
       id="clipPath28">
      <path
         d="M 0,388.092 H 747.796 V 0 H 0 Z"
         transform="translate(-610.66082,-47.531901)"
         id="path28" />
    </clipPath>
    <clipPath
       clipPathUnits="userSpaceOnUse"
       id="clipPath30">
      <path
         d="M 0,388.092 H 747.796 V 0 H 0 Z"
         transform="translate(-674.02112,-54.732104)"
         id="path30" />
    </clipPath>
    <clipPath
       clipPathUnits="userSpaceOnUse"
       id="clipPath32">
      <path
         d="M 0,388.092 H 747.796 V 0 H 0 Z"
         transform="translate(-78.985504,-343.69151)"
         id="path32" />
    </clipPath>
    <clipPath
       clipPathUnits="userSpaceOnUse"
       id="clipPath34">
      <path
         d="M 0,388.092 H 747.796 V 0 H 0 Z"
         transform="translate(-120.47431,-348.91171)"
         id="path34" />
    </clipPath>
    <clipPath
       clipPathUnits="userSpaceOnUse"
       id="clipPath36">
      <path
         d="M 0,388.092 H 747.796 V 0 H 0 Z"
         transform="translate(-188.24281,-341.98161)"
         id="path36" />
    </clipPath>
    <clipPath
       clipPathUnits="userSpaceOnUse"
       id="clipPath38">
      <path
         d="M 0,388.092 H 747.796 V 0 H 0 Z"
         transform="translate(-208.58261,-348.91171)"
         id="path38" />
    </clipPath>
    <clipPath
       clipPathUnits="userSpaceOnUse"
       id="clipPath40">
      <path
         d="M 0,388.092 H 747.796 V 0 H 0 Z"
         transform="translate(-274.91131,-316.15201)"
         id="path40" />
    </clipPath>
    <clipPath
       clipPathUnits="userSpaceOnUse"
       id="clipPath42">
      <path
         d="M 0,388.092 H 747.796 V 0 H 0 Z"
         transform="translate(-587.96942,-132.9489)"
         id="path42" />
    </clipPath>
  </defs>
  <sodipodi:namedview
     id="namedview1"
     pagecolor="#ffffff"
     bordercolor="#999999"
     borderopacity="1"
     inkscape:showpageshadow="2"
     inkscape:pageopacity="0"
     inkscape:pagecheckerboard="0"
     inkscape:deskcolor="#d1d1d1"
     inkscape:zoom="0.90137612"
     inkscape:cx="482.04073"
     inkscape:cy="304.53436"
     inkscape:window-width="2056"
     inkscape:window-height="1286"
     inkscape:window-x="0"
     inkscape:window-y="43"
     inkscape:window-maximized="0"
     inkscape:current-layer="layer-MC0"
     inkscape:export-bgcolor="#ffffff00">
    <inkscape:page
       x="0"
       y="0"
       inkscape:label="1"
       id="page1"
       width="989.50189"
       height="509.89655"
       margin="34.996147 44.829334 47.02 43.853615"
       bleed="3.7794533 3.78 3.78 3.7794533"
       inkscape:export-filename="purus_logo_transparent.svg"
       inkscape:export-xdpi="96"
       inkscape:export-ydpi="96" />
  </sodipodi:namedview>
  <g
     id="layer-MC0"
     inkscape:groupmode="layer"
     inkscape:label="Ebene 1">
    <path
       id="path1"
       d="M 0,0 C 0,-7.932 -7.205,-14.361 -16.121,-14.361 H -659.49 c -8.908,0 -16.125,6.429 -16.125,14.361 v 116.723 c 0,7.932 7.217,14.358 16.125,14.358 H -16.121 C -7.205,131.081 0,124.655 0,116.723 Z"
       style="fill:#008057;fill-opacity:1;fill-rule:nonzero;stroke:none"
       transform="matrix(1.3333333,0,0,-1.3333333,944.67321,326.39321)"
       clip-path="url(#clipPath2)" />
    <path
       id="path3"
       d="m 0,0 v 31.129 c 0,2.933 -0.129,5.482 -0.385,7.645 -0.258,2.163 -0.753,3.977 -1.485,5.446 -0.734,1.466 -1.779,2.566 -3.135,3.3 -1.358,0.731 -3.135,1.1 -5.335,1.1 -3.374,0 -6.179,-1.028 -8.415,-3.081 -2.238,-2.053 -3.795,-4.619 -4.675,-7.7 V 0 h -8.8 v 55 h 7.59 l 0.22,-6.711 h 0.44 c 1.98,2.347 4.271,4.272 6.875,5.775 2.602,1.503 5.995,2.255 10.175,2.255 3.52,0 6.397,-0.678 8.635,-2.034 2.236,-1.358 3.977,-3.723 5.225,-7.096 1.686,2.861 4.015,5.097 6.985,6.71 2.97,1.613 6.325,2.42 10.065,2.42 3.08,0 5.682,-0.348 7.81,-1.045 2.126,-0.697 3.886,-1.924 5.28,-3.685 1.392,-1.76 2.401,-4.143 3.025,-7.15 C 40.717,41.432 41.03,37.62 41.03,33 V 0 h -8.8 v 33.109 c 0,2.641 -0.129,4.932 -0.385,6.875 -0.258,1.943 -0.77,3.557 -1.54,4.841 -0.77,1.282 -1.834,2.236 -3.19,2.86 -1.358,0.622 -3.135,0.935 -5.335,0.935 -3.668,0 -6.528,-1.028 -8.58,-3.081 C 11.146,43.486 9.68,40.552 8.8,36.74 V 0 Z"
       style="fill:#ffffff;fill-opacity:1;fill-rule:nonzero;stroke:none"
       transform="matrix(1.3333333,0,0,-1.3333333,118.34508,296.27215)"
       clip-path="url(#clipPath4)" />
    <path
       id="path5"
       d="m 0,0 c -4.328,0 -7.793,-1.138 -10.395,-3.409 -2.604,-2.274 -4.163,-6.16 -4.675,-11.66 h 27.28 c 0,5.572 -1.064,9.477 -3.19,11.715 C 6.892,-1.118 3.886,0 0,0 m 18.92,-44 c -2.2,-1.759 -4.969,-3.153 -8.305,-4.179 C 7.277,-49.205 3.74,-49.72 0,-49.72 c -4.18,0 -7.81,0.679 -10.89,2.035 -3.08,1.357 -5.61,3.301 -7.59,5.831 -1.98,2.53 -3.448,6.104 -4.4,10.725 -0.954,4.62 -1.43,7.955 -1.43,10.009 0,9.387 2.09,16.537 6.27,21.45 4.18,4.912 10.156,7.371 17.93,7.371 2.492,0 4.986,-0.275 7.48,-0.826 2.492,-0.549 4.73,-1.595 6.71,-3.134 1.98,-1.541 3.592,-3.723 4.84,-6.545 1.246,-2.825 1.87,-6.546 1.87,-11.166 0,-2.419 -0.22,-5.097 -0.66,-8.03 h -35.31 c 0,-0.879 0.33,-3.117 0.99,-6.709 0.66,-3.595 1.686,-6.253 3.08,-7.976 1.392,-1.723 3.207,-3.044 5.445,-3.96 2.236,-0.918 4.967,-1.375 8.195,-1.375 2.492,0 4.986,0.441 7.48,1.321 2.492,0.88 4.362,1.906 5.61,3.079 z"
       style="fill:#ffffff;fill-opacity:1;fill-rule:nonzero;stroke:none"
       transform="matrix(1.3333333,0,0,-1.3333333,226.73175,232.76681)"
       clip-path="url(#clipPath6)" />
    <path
       id="path7"
       d="m 0,0 c 3.74,0 6.71,0.972 8.91,2.916 2.199,1.942 3.702,4.895 4.51,8.855 v 27.28 c -1.32,1.025 -2.824,1.76 -4.51,2.199 -1.688,0.44 -3.924,0.66 -6.71,0.66 -5.06,0 -9.02,-1.668 -11.88,-5.005 -2.86,-3.338 -4.29,-8.672 -4.29,-16.005 0,-3.007 0.237,-5.793 0.715,-8.359 0.476,-2.568 1.265,-4.769 2.365,-6.601 1.1,-1.833 2.547,-3.282 4.345,-4.344 C -4.749,0.532 -2.568,0 0,0 m 22.22,12.541 c 0,-3.74 0.036,-7.133 0.11,-10.175 0.072,-3.045 0.402,-6.033 0.989,-8.966 H 17.38 l -2.2,7.81 H 14.74 C 13.271,-1.357 11.146,-3.483 8.359,-5.17 5.572,-6.855 2.31,-7.699 -1.431,-7.699 c -7.333,0 -12.778,2.31 -16.334,6.929 -3.558,4.621 -5.335,11.842 -5.335,21.67 0,9.387 2.217,16.518 6.655,21.396 4.436,4.876 10.541,7.315 18.315,7.315 2.712,0 4.857,-0.148 6.435,-0.441 1.576,-0.294 3.281,-0.77 5.115,-1.429 v 22.88 h 8.8 z"
       style="fill:#ffffff;fill-opacity:1;fill-rule:nonzero;stroke:none"
       transform="matrix(1.3333333,0,0,-1.3333333,303.58401,287.76681)"
       clip-path="url(#clipPath8)" />
    <path
       id="path9"
       d="m 274.522,218.053 h 8.8 v -55 h -8.8 z m -1.871,16.72 c 0,1.686 2.017,3.74 6.05,6.16 1.761,0 3.887,-2.054 6.381,-6.16 -2.494,-3.888 -4.62,-5.83 -6.381,-5.83 -4.033,2.2 -6.05,4.142 -6.05,5.83"
       style="fill:#ffffff;fill-opacity:1;fill-rule:nonzero;stroke:none"
       transform="matrix(1.3333333,0,0,-1.3333333,-3.7794533,513.67655)"
       clip-path="url(#clipPath10)" />
    <path
       id="path11"
       d="m 0,0 c -4.107,-3.521 -7.664,-5.703 -10.67,-6.546 -3.008,-0.842 -6.16,-1.265 -9.46,-1.265 -4.254,0 -7.848,0.679 -10.78,2.035 -2.934,1.357 -5.335,3.3 -7.205,5.831 -1.869,2.53 -3.228,5.571 -4.07,9.13 -0.843,3.555 -1.265,7.497 -1.265,11.825 0,9.311 2.053,16.444 6.16,21.394 4.106,4.95 10.01,7.425 17.71,7.425 3.52,0 6.508,-0.275 8.965,-0.825 2.456,-0.55 5.701,-1.853 9.735,-3.905 l -5.61,-6.05 c -1.688,0.952 -3.558,1.706 -5.61,2.256 -2.053,0.549 -4.254,0.825 -6.6,0.825 -10.413,0 -15.62,-7.041 -15.62,-21.12 0,-2.788 0.275,-5.446 0.825,-7.976 0.55,-2.529 1.467,-4.767 2.75,-6.71 1.282,-1.943 2.971,-3.503 5.06,-4.675 2.09,-1.173 4.675,-1.76 7.755,-1.76 2.64,0 5.005,0.403 7.095,1.21 2.09,0.806 3.795,1.722 5.115,2.75 z"
       style="fill:#ffffff;fill-opacity:1;fill-rule:nonzero;stroke:none"
       transform="matrix(1.3333333,0,0,-1.3333333,456.84641,287.61841)"
       clip-path="url(#clipPath12)" />
    <path
       id="path13"
       d="m 0,0 c 2.053,0 4.143,0.275 6.271,0.825 2.125,0.55 3.775,1.246 4.949,2.09 1.173,0.842 2.145,1.777 2.915,2.805 0.77,1.026 1.338,2.016 1.705,2.969 v 9.131 c -1.027,0.073 -2.072,0.127 -3.135,0.165 C 11.642,18.021 10.596,18.04 9.57,18.04 6.271,18.04 2.933,17.911 -0.439,17.655 -3.813,17.397 -6.215,16.316 -7.645,14.41 -9.075,12.502 -9.79,10.632 -9.79,8.801 -9.79,6.232 -8.874,4.125 -7.04,2.476 -5.208,0.825 -2.86,0 0,0 m -14.08,44.11 c 2.786,1.687 6.031,2.932 9.735,3.74 3.702,0.806 7.572,1.21 11.605,1.21 3.812,0 6.875,-0.514 9.185,-1.54 2.31,-1.028 4.07,-2.365 5.28,-4.014 1.211,-1.651 2.016,-3.466 2.421,-5.446 0.401,-1.98 0.604,-3.959 0.604,-5.94 0,-4.4 -0.11,-8.689 -0.33,-12.87 -0.22,-4.18 -0.33,-8.14 -0.33,-11.88 0,-2.714 0.495,-5.335 1.485,-7.864 0.99,-2.53 2.585,-4.713 4.785,-6.546 h -7.81 c -2.274,0 -4.18,2.566 -5.72,7.7 h -0.55 c -0.66,-1.028 -1.485,-2.035 -2.475,-3.025 -0.99,-0.99 -2.183,-1.87 -3.575,-2.64 C 8.836,-5.774 6.966,-6.418 4.62,-6.93 2.272,-7.441 -0.074,-7.699 -2.42,-7.699 c -2.348,0 -4.529,0.367 -6.545,1.099 -2.017,0.732 -3.759,1.777 -5.224,3.135 -1.469,1.357 -2.623,2.987 -3.466,4.896 -0.844,1.905 -1.265,4.069 -1.265,6.49 0,3.225 1.246,6.561 3.74,10.01 2.492,3.446 6.012,5.444 10.56,5.995 4.546,0.55 9.35,0.824 14.41,0.824 h 3.025 c 0.99,0 1.998,-0.073 3.025,-0.22 0.221,2.2 0.33,4.18 0.33,5.94 0,4.032 -0.808,6.856 -2.42,8.469 -1.614,1.613 -4.548,2.421 -8.8,2.421 -1.248,0 -2.585,-0.092 -4.014,-0.275 -1.431,-0.184 -2.899,-0.44 -4.401,-0.771 -1.504,-0.329 -2.933,-0.733 -4.29,-1.209 -1.357,-0.478 -2.549,-1.008 -3.575,-1.595 z"
       style="fill:#ffffff;fill-opacity:1;fill-rule:nonzero;stroke:none"
       transform="matrix(1.3333333,0,0,-1.3333333,490.72401,287.17961)"
       clip-path="url(#clipPath14)" />
    <path
       id="path15"
       d="m 0,0 c 0,-2.567 0.44,-4.4 1.32,-5.5 0.88,-1.1 2.126,-1.65 3.741,-1.65 0.952,0 1.979,0.072 3.08,0.22 1.099,0.147 2.345,0.476 3.739,0.99 l 0.99,-6.93 c -1.174,-0.588 -2.805,-1.063 -4.894,-1.43 -2.091,-0.366 -3.906,-0.55 -5.446,-0.55 -3.3,0 -6.013,0.936 -8.139,2.805 -2.128,1.87 -3.191,5.041 -3.191,9.516 V 63.47 H 0 Z"
       style="fill:#ffffff;fill-opacity:1;fill-rule:nonzero;stroke:none"
       transform="matrix(1.3333333,0,0,-1.3333333,562.88281,278.23308)"
       clip-path="url(#clipPath16)" />
    <path
       id="path17"
       d="m 0,0 c 1.68,0 3.39,0.225 5.13,0.675 1.74,0.45 3.09,1.019 4.051,1.71 0.959,0.689 1.755,1.454 2.384,2.295 0.63,0.84 1.094,1.649 1.395,2.429 v 7.471 c -0.841,0.059 -1.695,0.104 -2.564,0.135 C 9.524,14.744 8.67,14.76 7.83,14.76 5.13,14.76 2.399,14.654 -0.359,14.444 -3.12,14.233 -5.085,13.35 -6.255,11.79 -7.425,10.229 -8.01,8.699 -8.01,7.199 c 0,-2.1 0.75,-3.824 2.25,-5.175 C -4.261,0.675 -2.34,0 0,0 m -11.52,36.09 c 2.28,1.379 4.935,2.398 7.965,3.059 3.03,0.66 6.195,0.991 9.495,0.991 3.12,0 5.625,-0.421 7.515,-1.261 1.891,-0.841 3.33,-1.935 4.32,-3.284 0.991,-1.35 1.65,-2.836 1.98,-4.455 0.329,-1.62 0.495,-3.241 0.495,-4.861 0,-3.599 -0.09,-7.109 -0.27,-10.529 -0.18,-3.42 -0.27,-6.66 -0.27,-9.721 0,-2.219 0.405,-4.364 1.215,-6.434 0.81,-2.071 2.115,-3.857 3.915,-5.356 h -6.39 c -1.86,0 -3.42,2.1 -4.679,6.301 H 13.32 C 12.78,-0.301 12.105,-1.125 11.295,-1.936 10.485,-2.745 9.51,-3.465 8.37,-4.096 7.229,-4.726 5.7,-5.251 3.78,-5.67 1.859,-6.09 -0.061,-6.301 -1.979,-6.301 c -1.921,0 -3.707,0.302 -5.356,0.901 -1.65,0.599 -3.075,1.454 -4.274,2.565 -1.202,1.109 -2.147,2.443 -2.835,4.005 -0.691,1.559 -1.035,3.33 -1.035,5.309 0,2.64 1.019,5.37 3.059,8.191 2.039,2.819 4.919,4.455 8.641,4.904 3.718,0.45 7.649,0.676 11.79,0.676 h 2.474 c 0.81,0 1.634,-0.061 2.475,-0.181 0.181,1.801 0.27,3.42 0.27,4.861 0,3.299 -0.661,5.609 -1.98,6.929 -1.32,1.32 -3.721,1.981 -7.2,1.981 -1.021,0 -2.114,-0.076 -3.284,-0.226 -1.17,-0.15 -2.371,-0.36 -3.601,-0.63 -1.23,-0.269 -2.4,-0.6 -3.51,-0.989 -1.111,-0.391 -2.086,-0.826 -2.925,-1.306 z"
       style="fill:#656263;fill-opacity:1;fill-rule:nonzero;stroke:none"
       transform="matrix(1.3333333,0,0,-1.3333333,485.00135,442.86068)"
       clip-path="url(#clipPath18)" />
    <path
       id="path19"
       d="m 0,0 c -3.36,-2.88 -6.271,-4.666 -8.729,-5.354 -2.461,-0.69 -5.041,-1.036 -7.741,-1.036 -3.48,0 -6.421,0.556 -8.82,1.665 -2.4,1.11 -4.364,2.701 -5.895,4.77 -1.53,2.07 -2.64,4.559 -3.33,7.471 -0.69,2.909 -1.035,6.133 -1.035,9.674 0,7.62 1.679,13.456 5.04,17.505 3.36,4.05 8.191,6.076 14.49,6.076 2.88,0 5.325,-0.226 7.335,-0.676 2.01,-0.449 4.664,-1.516 7.965,-3.196 l -4.59,-4.95 c -1.38,0.78 -2.911,1.396 -4.589,1.846 -1.681,0.45 -3.481,0.675 -5.401,0.675 -8.52,0 -12.78,-5.76 -12.78,-17.28 0,-2.281 0.226,-4.455 0.676,-6.525 0.449,-2.07 1.199,-3.9 2.25,-5.49 1.049,-1.59 2.429,-2.865 4.139,-3.824 1.71,-0.961 3.826,-1.441 6.345,-1.441 2.16,0 4.095,0.329 5.806,0.99 1.71,0.66 3.104,1.41 4.184,2.25 z"
       style="fill:#656263;fill-opacity:1;fill-rule:nonzero;stroke:none"
       transform="matrix(1.3333333,0,0,-1.3333333,575.35935,443.22135)"
       clip-path="url(#clipPath20)" />
    <path
       id="path21"
       d="m 0,0 c 1.68,0 3.39,0.225 5.13,0.675 1.74,0.45 3.09,1.019 4.051,1.71 0.959,0.689 1.755,1.454 2.384,2.295 0.63,0.84 1.094,1.649 1.395,2.429 v 7.471 c -0.841,0.059 -1.695,0.104 -2.564,0.135 C 9.524,14.744 8.67,14.76 7.83,14.76 5.13,14.76 2.399,14.654 -0.359,14.444 -3.12,14.233 -5.085,13.35 -6.255,11.79 -7.425,10.229 -8.01,8.699 -8.01,7.199 c 0,-2.1 0.75,-3.824 2.25,-5.175 C -4.261,0.675 -2.34,0 0,0 m -11.52,36.09 c 2.28,1.379 4.935,2.398 7.965,3.059 3.03,0.66 6.195,0.991 9.495,0.991 3.12,0 5.625,-0.421 7.515,-1.261 1.891,-0.841 3.33,-1.935 4.32,-3.284 0.991,-1.35 1.65,-2.836 1.98,-4.455 0.329,-1.62 0.495,-3.241 0.495,-4.861 0,-3.599 -0.09,-7.109 -0.27,-10.529 -0.18,-3.42 -0.27,-6.66 -0.27,-9.721 0,-2.219 0.405,-4.364 1.215,-6.434 0.81,-2.071 2.115,-3.857 3.915,-5.356 h -6.39 c -1.86,0 -3.42,2.1 -4.679,6.301 H 13.32 C 12.78,-0.301 12.105,-1.125 11.295,-1.936 10.485,-2.745 9.51,-3.465 8.37,-4.096 7.229,-4.726 5.7,-5.251 3.78,-5.67 1.859,-6.09 -0.061,-6.301 -1.979,-6.301 c -1.921,0 -3.707,0.302 -5.356,0.901 -1.65,0.599 -3.075,1.454 -4.274,2.565 -1.202,1.109 -2.147,2.443 -2.835,4.005 -0.691,1.559 -1.035,3.33 -1.035,5.309 0,2.64 1.019,5.37 3.059,8.191 2.039,2.819 4.919,4.455 8.641,4.904 3.718,0.45 7.649,0.676 11.79,0.676 h 2.474 c 0.81,0 1.634,-0.061 2.475,-0.181 0.181,1.801 0.27,3.42 0.27,4.861 0,3.299 -0.661,5.609 -1.98,6.929 -1.32,1.32 -3.721,1.981 -7.2,1.981 -1.021,0 -2.114,-0.076 -3.284,-0.226 -1.17,-0.15 -2.371,-0.36 -3.601,-0.63 -1.23,-0.269 -2.4,-0.6 -3.51,-0.989 -1.111,-0.391 -2.086,-0.826 -2.925,-1.306 z"
       style="fill:#656263;fill-opacity:1;fill-rule:nonzero;stroke:none"
       transform="matrix(1.3333333,0,0,-1.3333333,601.03775,442.86068)"
       clip-path="url(#clipPath22)" />
    <path
       id="path23"
       d="m 0,0 c 3.061,0 5.49,0.795 7.29,2.385 1.8,1.589 3.029,4.005 3.69,7.245 v 22.32 c -1.08,0.839 -2.31,1.44 -3.69,1.8 -1.381,0.36 -3.21,0.539 -5.49,0.539 -4.14,0 -7.38,-1.365 -9.72,-4.094 -2.34,-2.731 -3.51,-7.096 -3.51,-13.095 0,-2.461 0.195,-4.741 0.585,-6.84 0.39,-2.101 1.035,-3.901 1.935,-5.4 0.9,-1.501 2.084,-2.686 3.556,-3.555 C -3.886,0.435 -2.101,0 0,0 m 18.181,10.26 c 0,-3.06 0.029,-5.836 0.09,-8.325 0.058,-2.491 0.329,-4.936 0.809,-7.335 h -4.86 l -1.8,6.39 H 12.061 C 10.859,-1.111 9.12,-2.851 6.84,-4.229 4.56,-5.609 1.891,-6.3 -1.17,-6.3 c -6,0 -10.455,1.89 -13.365,5.67 -2.91,3.78 -4.364,9.69 -4.364,17.73 0,7.679 1.813,13.514 5.444,17.505 3.63,3.989 8.625,5.985 14.985,5.985 2.219,0 3.974,-0.121 5.265,-0.36 1.29,-0.241 2.684,-0.63 4.185,-1.17 v 18.72 h 7.201 z"
       style="fill:#656263;fill-opacity:1;fill-rule:nonzero;stroke:none"
       transform="matrix(1.3333333,0,0,-1.3333333,669.19668,443.34108)"
       clip-path="url(#clipPath24)" />
    <path
       id="path25"
       d="m 0,0 c -3.541,0 -6.376,-0.932 -8.505,-2.79 -2.131,-1.86 -3.406,-5.04 -3.825,-9.54 H 9.99 c 0,4.559 -0.87,7.754 -2.61,9.585 C 5.64,-0.915 3.18,0 0,0 m 15.48,-36 c -1.799,-1.44 -4.065,-2.58 -6.794,-3.42 -2.732,-0.84 -5.625,-1.26 -8.686,-1.26 -3.42,0 -6.39,0.556 -8.91,1.665 -2.52,1.11 -4.59,2.7 -6.21,4.77 -1.62,2.07 -2.82,4.995 -3.6,8.775 -0.78,3.78 -1.17,6.51 -1.17,8.19 0,7.679 1.71,13.53 5.13,17.55 3.42,4.019 8.31,6.03 14.67,6.03 2.039,0 4.079,-0.225 6.12,-0.675 2.039,-0.45 3.87,-1.306 5.491,-2.565 1.62,-1.26 2.938,-3.046 3.959,-5.355 1.02,-2.31 1.53,-5.355 1.53,-9.135 0,-1.98 -0.18,-4.171 -0.54,-6.57 h -28.89 c 0,-0.72 0.271,-2.551 0.811,-5.49 0.54,-2.941 1.379,-5.115 2.519,-6.525 1.139,-1.411 2.624,-2.491 4.455,-3.24 1.829,-0.751 4.065,-1.125 6.705,-1.125 2.039,0 4.079,0.36 6.12,1.08 2.039,0.72 3.569,1.56 4.59,2.52 z"
       style="fill:#656263;fill-opacity:1;fill-rule:nonzero;stroke:none"
       transform="matrix(1.3333333,0,0,-1.3333333,736.27468,398.34108)"
       clip-path="url(#clipPath26)" />
    <path
       id="path27"
       d="m 0,0 v 25.47 c 0,2.399 -0.105,4.484 -0.314,6.255 -0.211,1.769 -0.617,3.254 -1.216,4.455 -0.6,1.199 -1.455,2.099 -2.565,2.7 -1.111,0.599 -2.565,0.899 -4.365,0.899 -2.761,0 -5.056,-0.841 -6.885,-2.52 -1.831,-1.68 -3.105,-3.779 -3.825,-6.299 V 0 h -7.2 v 45 h 6.21 l 0.181,-5.491 h 0.359 c 1.62,1.921 3.495,3.495 5.625,4.725 2.129,1.229 4.905,1.846 8.325,1.846 2.88,0 5.234,-0.556 7.066,-1.666 1.829,-1.11 3.253,-3.046 4.274,-5.805 1.38,2.341 3.285,4.17 5.715,5.491 2.43,1.318 5.176,1.98 8.235,1.98 2.521,0 4.65,-0.286 6.39,-0.855 1.74,-0.571 3.179,-1.576 4.32,-3.016 1.14,-1.439 1.965,-3.391 2.476,-5.85 C 33.314,33.898 33.57,30.779 33.57,27 V 0 h -7.2 v 27.09 c 0,2.16 -0.105,4.034 -0.314,5.625 -0.211,1.589 -0.631,2.909 -1.261,3.96 -0.63,1.049 -1.5,1.829 -2.609,2.34 -1.112,0.508 -2.566,0.764 -4.366,0.764 -3.001,0 -5.341,-0.841 -7.02,-2.52 C 9.12,35.579 7.92,33.179 7.2,30.06 V 0 Z"
       style="fill:#656263;fill-opacity:1;fill-rule:nonzero;stroke:none"
       transform="matrix(1.3333333,0,0,-1.3333333,810.43495,450.30068)"
       clip-path="url(#clipPath28)" />
    <path
       id="path29"
       d="m 0,0 h 0.45 l 10.71,37.8 h 7.29 L 5.13,-2.61 C 4.109,-5.551 3.105,-8.4 2.115,-11.16 c -0.99,-2.76 -2.085,-5.221 -3.285,-7.38 -1.201,-2.16 -2.551,-3.885 -4.05,-5.176 -1.5,-1.289 -3.24,-1.934 -5.219,-1.934 -2.161,0 -4.622,0.99 -7.38,2.969 l 3.33,4.141 c 0.778,-0.3 1.529,-0.45 2.25,-0.45 1.678,0 3.299,0.886 4.859,2.655 1.56,1.77 2.85,4.814 3.87,9.135 l -18.09,45 h 8.281 z"
       style="fill:#656263;fill-opacity:1;fill-rule:nonzero;stroke:none"
       transform="matrix(1.3333333,0,0,-1.3333333,894.91535,440.70041)"
       clip-path="url(#clipPath30)" />
    <path
       id="path31"
       d="m 0,0 c -3.06,0 -5.476,-0.796 -7.245,-2.385 -1.77,-1.59 -3.015,-4.005 -3.735,-7.245 v -22.32 c 1.08,-0.841 2.309,-1.485 3.69,-1.935 1.38,-0.45 3.209,-0.675 5.49,-0.675 4.14,0 7.425,1.544 9.855,4.635 2.43,3.09 3.645,7.635 3.645,13.635 0,2.46 -0.211,4.694 -0.63,6.705 -0.42,2.01 -1.095,3.72 -2.025,5.13 -0.931,1.409 -2.13,2.505 -3.6,3.285 C 3.974,-0.391 2.16,0 0,0 m -18.18,5.22 h 6.3 v -5.4 h 0.36 c 1.38,2.1 3.164,3.704 5.355,4.815 2.19,1.11 4.694,1.665 7.515,1.665 5.999,0 10.47,-1.77 13.41,-5.31 2.939,-3.541 4.41,-9.33 4.41,-17.37 0,-3.78 -0.495,-7.186 -1.485,-10.215 -0.99,-3.03 -2.385,-5.595 -4.185,-7.695 -1.8,-2.101 -3.975,-3.721 -6.525,-4.86 -2.551,-1.139 -5.386,-1.71 -8.505,-1.71 -2.22,0 -3.975,0.135 -5.265,0.405 -1.291,0.27 -2.686,0.734 -4.185,1.395 v -18.72 h -7.2 z"
       style="fill:#656263;fill-opacity:1;fill-rule:nonzero;stroke:none"
       transform="matrix(1.3333333,0,0,-1.3333333,101.53455,55.421213)"
       clip-path="url(#clipPath32)" />
    <path
       id="path33"
       d="m 0,0 v -25.65 c 0,-2.34 0.135,-4.396 0.405,-6.165 0.27,-1.77 0.734,-3.24 1.395,-4.41 0.659,-1.17 1.559,-2.056 2.7,-2.655 1.139,-0.6 2.579,-0.9 4.32,-0.9 1.62,0 3.06,0.255 4.32,0.765 1.26,0.509 2.385,1.215 3.375,2.115 0.99,0.9 1.859,1.935 2.61,3.105 0.749,1.17 1.364,2.415 1.845,3.735 V 0 h 7.2 v -32.22 c 0,-2.16 0.074,-4.396 0.225,-6.705 0.149,-2.31 1.215,-4.335 3.195,-6.075 h -6.21 c -1.741,0 -2.731,2.37 -2.97,7.11 h -0.45 c -1.381,-2.34 -3.24,-4.291 -5.58,-5.85 -2.34,-1.559 -5.31,-2.34 -8.91,-2.34 -2.401,0 -4.515,0.286 -6.345,0.855 -1.831,0.57 -3.361,1.575 -4.59,3.015 -1.231,1.44 -2.16,3.375 -2.79,5.805 -0.63,2.43 -0.945,5.504 -0.945,9.225 L -7.2,0 Z"
       style="fill:#656263;fill-opacity:1;fill-rule:nonzero;stroke:none"
       transform="matrix(1.3333333,0,0,-1.3333333,156.85295,48.460947)"
       clip-path="url(#clipPath34)" />
    <path
       id="path35"
       d="m 0,0 c -1.8,0.599 -3.51,0.9 -5.13,0.9 -2.58,0 -4.621,-0.706 -6.12,-2.115 -1.5,-1.41 -2.43,-3.195 -2.79,-5.355 v -31.5 h -7.2 v 45 h 6.48 l -0.09,-5.49 h 0.36 c 1.139,2.039 2.505,3.614 4.095,4.725 1.589,1.11 3.614,1.665 6.075,1.665 1.739,0 3.69,-0.301 5.85,-0.9 z"
       style="fill:#656263;fill-opacity:1;fill-rule:nonzero;stroke:none"
       transform="matrix(1.3333333,0,0,-1.3333333,247.21095,57.70108)"
       clip-path="url(#clipPath36)" />
    <path
       id="path37"
       d="m 0,0 v -25.65 c 0,-2.34 0.135,-4.396 0.405,-6.165 0.27,-1.77 0.734,-3.24 1.395,-4.41 0.659,-1.17 1.559,-2.056 2.7,-2.655 1.139,-0.6 2.579,-0.9 4.321,-0.9 1.619,0 3.058,0.255 4.318,0.765 1.26,0.509 2.385,1.215 3.375,2.115 0.99,0.9 1.86,1.935 2.611,3.105 0.749,1.17 1.364,2.415 1.844,3.735 V 0 h 7.201 v -32.22 c 0,-2.16 0.075,-4.396 0.225,-6.705 0.148,-2.31 1.215,-4.335 3.195,-6.075 h -6.211 c -1.74,0 -2.73,2.37 -2.968,7.11 h -0.452 c -1.38,-2.34 -3.24,-4.291 -5.58,-5.85 -2.339,-1.559 -5.308,-2.34 -8.91,-2.34 -2.4,0 -4.514,0.286 -6.344,0.855 -1.831,0.57 -3.361,1.575 -4.59,3.015 -1.231,1.44 -2.16,3.375 -2.79,5.805 -0.63,2.43 -0.945,5.504 -0.945,9.225 L -7.2,0 Z"
       style="fill:#656263;fill-opacity:1;fill-rule:nonzero;stroke:none"
       transform="matrix(1.3333333,0,0,-1.3333333,274.33068,48.460947)"
       clip-path="url(#clipPath38)" />
    <path
       id="path39"
       d="m 0,0 c 0,1.8 -0.54,3.209 -1.62,4.23 -1.08,1.02 -2.416,1.874 -4.005,2.565 -1.591,0.689 -3.33,1.35 -5.221,1.98 -1.889,0.63 -3.631,1.44 -5.219,2.43 -1.591,0.99 -2.925,2.264 -4.005,3.825 -1.08,1.559 -1.62,3.659 -1.62,6.3 0,4.32 1.229,7.484 3.69,9.495 2.459,2.009 5.879,3.015 10.26,3.015 3.24,0 5.954,-0.286 8.144,-0.855 2.19,-0.571 4.096,-1.246 5.715,-2.025 l -1.71,-5.94 c -1.381,0.659 -3.046,1.244 -4.995,1.755 -1.95,0.509 -4.035,0.765 -6.255,0.765 -2.64,0 -4.575,-0.45 -5.805,-1.35 -1.23,-0.9 -1.844,-2.461 -1.844,-4.68 0,-1.561 0.54,-2.776 1.62,-3.645 1.08,-0.871 2.414,-1.651 4.005,-2.34 1.589,-0.691 3.33,-1.366 5.219,-2.025 1.89,-0.661 3.63,-1.53 5.22,-2.61 C 3.164,9.81 4.5,8.444 5.579,6.795 6.659,5.144 7.199,2.97 7.199,0.27 c 0,-1.921 -0.314,-3.721 -0.944,-5.4 -0.63,-1.681 -1.607,-3.12 -2.926,-4.32 -1.32,-1.201 -2.955,-2.146 -4.904,-2.835 -1.951,-0.689 -4.246,-1.035 -6.886,-1.035 -3.42,0 -6.33,0.33 -8.729,0.99 -2.401,0.659 -4.411,1.44 -6.031,2.34 l 2.16,6.12 c 1.38,-0.781 3.18,-1.501 5.401,-2.16 2.219,-0.661 4.469,-0.99 6.75,-0.99 2.579,0 4.709,0.509 6.389,1.53 C -0.842,-4.471 0,-2.641 0,0"
       style="fill:#656263;fill-opacity:1;fill-rule:nonzero;stroke:none"
       transform="matrix(1.3333333,0,0,-1.3333333,362.76895,92.140547)"
       clip-path="url(#clipPath40)" />
    <path
       id="path41"
       d="m 0,0 c -0.102,0 -0.205,0.004 -0.309,0.014 -1.657,0.145 -2.982,1.437 -3.17,3.09 l -10.24,90.01 -8.296,-71.735 c -0.176,-1.531 -1.335,-2.767 -2.852,-3.041 -1.516,-0.275 -3.035,0.474 -3.738,1.847 l -5.162,10.063 h -16.426 c -1.191,0 -2.3,0.606 -2.945,1.607 -4.201,6.535 -8.827,9.943 -13.749,10.129 -9.183,0.359 -17.409,-10.24 -17.489,-10.347 -0.662,-0.874 -1.695,-1.389 -2.792,-1.389 h -43.393 v 7 h 41.745 c 3.021,3.471 11.636,12.118 22.195,11.731 6.869,-0.26 13.016,-4.205 18.293,-11.731 h 16.7 c 1.313,0 2.516,-0.734 3.114,-1.903 l 0.871,-1.699 10.476,90.584 c 0.204,1.767 1.699,3.099 3.477,3.099 h 0.002 c 1.78,-0.002 3.274,-1.337 3.475,-3.105 L 1.533,20.974 5.768,35.243 c 0.441,1.486 1.807,2.504 3.355,2.504 H 9.174 L 41.365,37.28 c 2.908,5.92 11.445,20.925 23.202,20.925 h 0.089 c 8.172,-0.053 15.22,-6.968 21.507,-21.123 h 18.622 v -7 H 83.859 c -1.412,0 -2.685,0.849 -3.229,2.15 C 75.459,44.61 69.92,51.171 64.611,51.205 h -0.043 c -7.847,0 -15.656,-13.95 -17.776,-18.848 -0.555,-1.282 -1.818,-2.109 -3.212,-2.109 H 43.529 L 11.724,30.709 3.354,2.504 C 2.909,1.009 1.536,0 0,0"
       style="fill:#ffffff;fill-opacity:1;fill-rule:nonzero;stroke:none"
       transform="matrix(1.3333333,0,0,-1.3333333,780.17975,336.41135)"
       clip-path="url(#clipPath42)" />
  </g>
</svg>
