<svg width="20" height="17" viewBox="0 0 20 17" fill="none" xmlns="http://www.w3.org/2000/svg">
<path d="M15.188 16.2178H4.80371C4.59342 16.2178 4.45508 16.132 4.38867 15.9604C4.3278 15.7889 4.361 15.6312 4.48828 15.4873L9.60986 9.67676C9.71501 9.56055 9.84505 9.50244 10 9.50244C10.1549 9.50244 10.2822 9.56055 10.3818 9.67676L15.5034 15.4873C15.6362 15.6312 15.6694 15.7889 15.603 15.9604C15.5366 16.132 15.3983 16.2178 15.188 16.2178ZM17.562 0.0229492C18.3146 0.0229492 18.904 0.23877 19.3301 0.67041C19.7562 1.09652 19.9692 1.68311 19.9692 2.43018V10.98C19.9692 11.7326 19.7562 12.3219 19.3301 12.748C18.904 13.1742 18.3146 13.3872 17.562 13.3872H15.271L13.7021 11.6108H17.4126C17.6616 11.6108 17.8525 11.5444 17.9854 11.4116C18.1237 11.2788 18.1929 11.0879 18.1929 10.8389V2.57959C18.1929 2.33057 18.1237 2.13965 17.9854 2.00684C17.8525 1.87402 17.6616 1.80762 17.4126 1.80762H2.5708C2.32731 1.80762 2.13639 1.87402 1.99805 2.00684C1.86523 2.13965 1.79883 2.33057 1.79883 2.57959V10.8389C1.79883 11.0879 1.86523 11.2788 1.99805 11.4116C2.13639 11.5444 2.32731 11.6108 2.5708 11.6108H6.29785L4.729 13.3872H2.42969C1.67708 13.3872 1.08773 13.1742 0.661621 12.748C0.235514 12.3219 0.0224609 11.7326 0.0224609 10.98V2.43018C0.0224609 1.68311 0.235514 1.09652 0.661621 0.67041C1.08773 0.23877 1.67708 0.0229492 2.42969 0.0229492H17.562Z" fill="black"/>
</svg>
