<svg width="19" height="20" viewBox="0 0 19 20" fill="none" xmlns="http://www.w3.org/2000/svg">
<path d="M3.24063 19.1177C2.16042 19.1177 1.34854 18.8493 0.804997 18.3127C0.268332 17.7829 0 16.9848 0 15.9183V3.31702C0 2.25057 0.268332 1.45246 0.804997 0.922673C1.34854 0.386008 2.16042 0.117676 3.24063 0.117676H15.7594C16.8396 0.117676 17.648 0.386008 18.1847 0.922673C18.7282 1.45246 19 2.25057 19 3.31702V15.9183C19 16.9848 18.7282 17.7829 18.1847 18.3127C17.648 18.8493 16.8396 19.1177 15.7594 19.1177H3.24063ZM3.26127 17.4561H15.7387C16.2479 17.4561 16.64 17.3219 16.9153 17.0536C17.1974 16.7784 17.3384 16.3724 17.3384 15.8358V3.39959C17.3384 2.86292 17.1974 2.46042 16.9153 2.19209C16.64 1.91688 16.2479 1.77927 15.7387 1.77927H3.26127C2.74525 1.77927 2.34963 1.91688 2.07442 2.19209C1.7992 2.46042 1.6616 2.86292 1.6616 3.39959V15.8358C1.6616 16.3724 1.7992 16.7784 2.07442 17.0536C2.34963 17.3219 2.74525 17.4561 3.26127 17.4561ZM8.38023 14.4941C8.20822 14.4941 8.04997 14.4563 7.90549 14.3806C7.76788 14.3049 7.63371 14.1845 7.50299 14.0194L4.98479 10.9232C4.82654 10.7099 4.74742 10.4966 4.74742 10.2833C4.74742 10.0563 4.8231 9.86365 4.97447 9.7054C5.13272 9.54027 5.32193 9.45771 5.5421 9.45771C5.68658 9.45771 5.81731 9.48867 5.93427 9.55059C6.05812 9.60563 6.18197 9.71572 6.30581 9.88085L8.33895 12.5126L12.6219 5.63913C12.8146 5.32952 13.0554 5.17471 13.3444 5.17471C13.5577 5.17471 13.7503 5.24351 13.9223 5.38112C14.0943 5.51873 14.1803 5.70105 14.1803 5.9281C14.1803 6.04507 14.1528 6.16204 14.0978 6.279C14.0496 6.38909 13.9946 6.49229 13.9326 6.58862L9.21619 14.0194C9.00978 14.3359 8.73112 14.4941 8.38023 14.4941Z" fill="black"/>
</svg>
