<svg width="19" height="20" viewBox="0 0 19 20" fill="none" xmlns="http://www.w3.org/2000/svg">
<path d="M3.24063 19.1177C2.16042 19.1177 1.34854 18.8493 0.804997 18.3127C0.268332 17.7829 0 16.9848 0 15.9183V3.31702C0 2.25057 0.268332 1.45246 0.804997 0.922673C1.34854 0.386008 2.16042 0.117676 3.24063 0.117676H15.7594C16.8396 0.117676 17.648 0.386008 18.1847 0.922673C18.7282 1.45246 19 2.25057 19 3.31702V15.9183C19 16.9848 18.7282 17.7829 18.1847 18.3127C17.648 18.8493 16.8396 19.1177 15.7594 19.1177H3.24063ZM8.34927 14.6386C8.52815 14.6386 8.68984 14.5973 8.83433 14.5147C8.97882 14.4322 9.1061 14.3083 9.21619 14.1432L14.0668 6.49573C14.1287 6.39253 14.1872 6.28244 14.2423 6.16548C14.2973 6.04851 14.3248 5.93154 14.3248 5.81458C14.3248 5.57377 14.2354 5.38456 14.0565 5.24695C13.8776 5.10247 13.6781 5.03022 13.4579 5.03022C13.1552 5.03022 12.9075 5.18847 12.7148 5.50497L8.30798 12.5848L6.21293 9.88085C6.0822 9.70884 5.95492 9.59187 5.83107 9.52995C5.7141 9.46803 5.57994 9.43707 5.42857 9.43707C5.19464 9.43707 4.99855 9.52307 4.8403 9.69508C4.68206 9.86021 4.60293 10.0597 4.60293 10.2937C4.60293 10.4106 4.62357 10.5276 4.66486 10.6446C4.71302 10.7546 4.77494 10.8613 4.85062 10.9645L7.44106 14.1432C7.57867 14.3221 7.71972 14.4494 7.8642 14.5251C8.00869 14.6007 8.17038 14.6386 8.34927 14.6386Z" fill="black"/>
</svg>
