<svg width="19" height="20" viewBox="0 0 19 20" fill="none" xmlns="http://www.w3.org/2000/svg">
<path d="M3.24063 19.1177C2.16042 19.1177 1.34854 18.8493 0.804997 18.3127C0.268332 17.7829 0 16.9848 0 15.9183V3.31702C0 2.25057 0.268332 1.45246 0.804997 0.922673C1.34854 0.386008 2.16042 0.117676 3.24063 0.117676H15.7594C16.8396 0.117676 17.648 0.386008 18.1847 0.922673C18.7282 1.45246 19 2.25057 19 3.31702V15.9183C19 16.9848 18.7282 17.7829 18.1847 18.3127C17.648 18.8493 16.8396 19.1177 15.7594 19.1177H3.24063ZM3.26127 17.4561H15.7387C16.2479 17.4561 16.64 17.3219 16.9153 17.0536C17.1974 16.7784 17.3384 16.3724 17.3384 15.8358V3.39959C17.3384 2.86292 17.1974 2.46042 16.9153 2.19209C16.64 1.91688 16.2479 1.77927 15.7387 1.77927H3.26127C2.74525 1.77927 2.34963 1.91688 2.07442 2.19209C1.7992 2.46042 1.6616 2.86292 1.6616 3.39959V15.8358C1.6616 16.3724 1.7992 16.7784 2.07442 17.0536C2.34963 17.3219 2.74525 17.4561 3.26127 17.4561Z" fill="black"/>
</svg>
