<svg width="19" height="17" viewBox="0 0 19 17" fill="none" xmlns="http://www.w3.org/2000/svg">
<path d="M18.9999 5.74489V14.5665C18.9999 14.7696 18.9165 14.9644 18.7681 15.108C18.6196 15.2516 18.4182 15.3323 18.2083 15.3323C17.9983 15.3323 17.7969 15.2516 17.6485 15.108C17.5 14.9644 17.4166 14.7696 17.4166 14.5665V8.25048L11.5583 10.9582C10.9406 11.3109 10.2354 11.4946 9.51814 11.4897C8.76594 11.4908 8.0274 11.2953 7.38064 10.9238L1.53814 8.23363C1.07888 7.99475 0.694071 7.64134 0.423646 7.21007C0.153222 6.77881 0.0070326 6.28541 0.000247448 5.78106C-0.00653771 5.27671 0.126329 4.7798 0.38506 4.34187C0.643791 3.90395 1.01896 3.54097 1.47164 3.29061C1.49301 3.27836 1.51597 3.26687 1.53814 3.25615L7.4416 0.531558C8.07894 0.177515 8.80228 -0.0059112 9.53722 0.000145265C10.2722 0.00620173 10.9922 0.201523 11.6232 0.566018L17.4617 3.25615C17.9224 3.50271 18.3074 3.86286 18.5776 4.29999C18.8478 4.73712 18.9935 5.23564 18.9999 5.74489ZM9.51735 13.0197C8.50447 13.0218 7.50899 12.7651 6.63172 12.2753L3.1666 10.6757V12.7432C3.16707 13.5607 3.43764 14.3566 3.93881 15.0148C4.43999 15.6731 5.14553 16.1591 5.95247 16.4021C7.1054 16.7222 8.30051 16.8778 9.49993 16.8638C10.6995 16.8768 11.8946 16.7202 13.0474 16.399C13.8543 16.156 14.5599 15.67 15.0611 15.0118C15.5622 14.3536 15.8328 13.5576 15.8333 12.7402V10.6795L12.3032 12.3106C11.4559 12.7815 10.4946 13.0267 9.51735 13.0212V13.0197Z" fill="black"/>
</svg>
