<svg width="21" height="20" viewBox="0 0 21 20" fill="none" xmlns="http://www.w3.org/2000/svg">
<path d="M3.37448 19.0968C2.33871 19.0968 1.56024 18.8396 1.03906 18.325C0.524479 17.817 0.267187 17.0517 0.267187 16.0291V3.94632C0.267187 2.92375 0.524479 2.15847 1.03906 1.65049C1.56024 1.13591 2.33871 0.878613 3.37448 0.878613H16.8922C17.928 0.878613 18.7031 1.13591 19.2177 1.65049C19.7323 2.15847 19.9896 2.92375 19.9896 3.94632V16.0291C19.9896 17.0517 19.7323 17.817 19.2177 18.325C18.7031 18.8396 17.928 19.0968 16.8922 19.0968H3.37448ZM3.22604 17.5036H17.0208C17.4628 17.5036 17.8026 17.3849 18.0401 17.1474C18.2776 16.9165 18.3964 16.5734 18.3964 16.1182V6.78643C18.3964 6.33122 18.2776 5.98816 18.0401 5.75726C17.8026 5.51976 17.4628 5.40101 17.0208 5.40101H3.22604C2.79062 5.40101 2.45417 5.51976 2.21667 5.75726C1.97917 5.98816 1.86042 6.33122 1.86042 6.78643V16.1182C1.86042 16.5734 1.97917 16.9165 2.21667 17.1474C2.45417 17.3849 2.79062 17.5036 3.22604 17.5036ZM8.20365 8.96351C8.03212 8.96351 7.91007 8.93052 7.8375 8.86455C7.77153 8.79858 7.73854 8.67983 7.73854 8.5083V7.92445C7.73854 7.75292 7.77153 7.63747 7.8375 7.57809C7.91007 7.51212 8.03212 7.47913 8.20365 7.47913H8.7875C8.95903 7.47913 9.07778 7.51212 9.14375 7.57809C9.21632 7.63747 9.2526 7.75292 9.2526 7.92445V8.5083C9.2526 8.67983 9.21632 8.79858 9.14375 8.86455C9.07778 8.93052 8.95903 8.96351 8.7875 8.96351H8.20365ZM11.4891 8.96351C11.3175 8.96351 11.1988 8.93052 11.1328 8.86455C11.0668 8.79858 11.0339 8.67983 11.0339 8.5083V7.92445C11.0339 7.75292 11.0668 7.63747 11.1328 7.57809C11.1988 7.51212 11.3175 7.47913 11.4891 7.47913H12.0729C12.251 7.47913 12.3731 7.51212 12.4391 7.57809C12.505 7.63747 12.538 7.75292 12.538 7.92445V8.5083C12.538 8.67983 12.505 8.79858 12.4391 8.86455C12.3731 8.93052 12.251 8.96351 12.0729 8.96351H11.4891ZM14.7844 8.96351C14.6062 8.96351 14.4842 8.93052 14.4182 8.86455C14.3523 8.79858 14.3193 8.67983 14.3193 8.5083V7.92445C14.3193 7.75292 14.3523 7.63747 14.4182 7.57809C14.4842 7.51212 14.6062 7.47913 14.7844 7.47913H15.3583C15.5365 7.47913 15.6585 7.51212 15.7245 7.57809C15.7905 7.63747 15.8234 7.75292 15.8234 7.92445V8.5083C15.8234 8.67983 15.7905 8.79858 15.7245 8.86455C15.6585 8.93052 15.5365 8.96351 15.3583 8.96351H14.7844ZM4.91823 12.1994C4.7401 12.1994 4.61806 12.1665 4.55208 12.1005C4.48611 12.0345 4.45312 11.9158 4.45312 11.7442V11.1703C4.45312 10.9922 4.48611 10.8734 4.55208 10.814C4.61806 10.7481 4.7401 10.7151 4.91823 10.7151H5.50208C5.67361 10.7151 5.79236 10.7481 5.85833 10.814C5.92431 10.8734 5.95729 10.9922 5.95729 11.1703V11.7442C5.95729 11.9158 5.92431 12.0345 5.85833 12.1005C5.79236 12.1665 5.67361 12.1994 5.50208 12.1994H4.91823ZM8.20365 12.1994C8.03212 12.1994 7.91007 12.1665 7.8375 12.1005C7.77153 12.0345 7.73854 11.9158 7.73854 11.7442V11.1703C7.73854 10.9922 7.77153 10.8734 7.8375 10.814C7.91007 10.7481 8.03212 10.7151 8.20365 10.7151H8.7875C8.95903 10.7151 9.07778 10.7481 9.14375 10.814C9.21632 10.8734 9.2526 10.9922 9.2526 11.1703V11.7442C9.2526 11.9158 9.21632 12.0345 9.14375 12.1005C9.07778 12.1665 8.95903 12.1994 8.7875 12.1994H8.20365ZM11.4891 12.1994C11.3175 12.1994 11.1988 12.1665 11.1328 12.1005C11.0668 12.0345 11.0339 11.9158 11.0339 11.7442V11.1703C11.0339 10.9922 11.0668 10.8734 11.1328 10.814C11.1988 10.7481 11.3175 10.7151 11.4891 10.7151H12.0729C12.251 10.7151 12.3731 10.7481 12.4391 10.814C12.505 10.8734 12.538 10.9922 12.538 11.1703V11.7442C12.538 11.9158 12.505 12.0345 12.4391 12.1005C12.3731 12.1665 12.251 12.1994 12.0729 12.1994H11.4891ZM14.7844 12.1994C14.6062 12.1994 14.4842 12.1665 14.4182 12.1005C14.3523 12.0345 14.3193 11.9158 14.3193 11.7442V11.1703C14.3193 10.9922 14.3523 10.8734 14.4182 10.814C14.4842 10.7481 14.6062 10.7151 14.7844 10.7151H15.3583C15.5365 10.7151 15.6585 10.7481 15.7245 10.814C15.7905 10.8734 15.8234 10.9922 15.8234 11.1703V11.7442C15.8234 11.9158 15.7905 12.0345 15.7245 12.1005C15.6585 12.1665 15.5365 12.1994 15.3583 12.1994H14.7844ZM4.91823 15.4354C4.7401 15.4354 4.61806 15.4057 4.55208 15.3463C4.48611 15.2803 4.45312 15.1583 4.45312 14.9802V14.4062C4.45312 14.2281 4.48611 14.1093 4.55208 14.05C4.61806 13.984 4.7401 13.951 4.91823 13.951H5.50208C5.67361 13.951 5.79236 13.984 5.85833 14.05C5.92431 14.1093 5.95729 14.2281 5.95729 14.4062V14.9802C5.95729 15.1583 5.92431 15.2803 5.85833 15.3463C5.79236 15.4057 5.67361 15.4354 5.50208 15.4354H4.91823ZM8.20365 15.4354C8.03212 15.4354 7.91007 15.4057 7.8375 15.3463C7.77153 15.2803 7.73854 15.1583 7.73854 14.9802V14.4062C7.73854 14.2281 7.77153 14.1093 7.8375 14.05C7.91007 13.984 8.03212 13.951 8.20365 13.951H8.7875C8.95903 13.951 9.07778 13.984 9.14375 14.05C9.21632 14.1093 9.2526 14.2281 9.2526 14.4062V14.9802C9.2526 15.1583 9.21632 15.2803 9.14375 15.3463C9.07778 15.4057 8.95903 15.4354 8.7875 15.4354H8.20365ZM11.4891 15.4354C11.3175 15.4354 11.1988 15.4057 11.1328 15.3463C11.0668 15.2803 11.0339 15.1583 11.0339 14.9802V14.4062C11.0339 14.2281 11.0668 14.1093 11.1328 14.05C11.1988 13.984 11.3175 13.951 11.4891 13.951H12.0729C12.251 13.951 12.3731 13.984 12.4391 14.05C12.505 14.1093 12.538 14.2281 12.538 14.4062V14.9802C12.538 15.1583 12.505 15.2803 12.4391 15.3463C12.3731 15.4057 12.251 15.4354 12.0729 15.4354H11.4891Z" fill="black"/>
</svg>
