<svg width="42" height="20" viewBox="0 0 42 20" fill="none" xmlns="http://www.w3.org/2000/svg">
<path d="M9.48272 9.78729C8.67506 9.78729 7.93663 9.57191 7.26743 9.14116C6.59823 8.71041 6.06364 8.13352 5.66366 7.41047C5.26368 6.68743 5.06369 5.88362 5.06369 4.99904C5.06369 4.13754 5.25983 3.35296 5.65212 2.6453C6.0521 1.93764 6.58669 1.37229 7.25589 0.949228C7.9251 0.52617 8.66737 0.314641 9.48272 0.314641C10.2981 0.314641 11.0403 0.522324 11.7095 0.93769C12.3787 1.35306 12.9133 1.91457 13.3133 2.62223C13.7133 3.32989 13.9133 4.11831 13.9133 4.98751C13.9133 5.87208 13.7133 6.67589 13.3133 7.39893C12.9133 8.12198 12.3749 8.70272 11.698 9.14116C11.0288 9.57191 10.2904 9.78729 9.48272 9.78729ZM3.47145 19.2022C2.63303 19.2022 1.99844 19.0599 1.56769 18.7753C1.14463 18.4984 0.933106 18.0677 0.933106 17.4831C0.933106 16.8216 1.12156 16.1139 1.49846 15.3601C1.87537 14.6063 2.42535 13.8986 3.14839 13.2371C3.87913 12.5679 4.77524 12.0256 5.83673 11.6103C6.89822 11.1872 8.1097 10.9757 9.47118 10.9757C10.8403 10.9757 12.0518 11.1872 13.1056 11.6103C14.1671 12.0256 15.0632 12.5679 15.794 13.2371C16.5247 13.8986 17.0785 14.6063 17.4554 15.3601C17.8323 16.1139 18.0208 16.8216 18.0208 17.4831C18.0208 18.0677 17.8054 18.4984 17.3747 18.7753C16.9516 19.0599 16.3209 19.2022 15.4824 19.2022H3.47145ZM33.3547 9.84498C32.5394 9.84498 31.7971 9.6296 31.1279 9.19885C30.4587 8.7681 29.9241 8.19121 29.5241 7.46816C29.1241 6.74512 28.9241 5.94131 28.9241 5.05673C28.9241 4.19523 29.1241 3.41065 29.5241 2.70299C29.9241 1.99533 30.4587 1.42997 31.1279 1.00692C31.7971 0.58386 32.5394 0.372331 33.3547 0.372331C34.1701 0.372331 34.9123 0.580014 35.5815 0.995379C36.2507 1.41075 36.7815 1.97226 37.1738 2.67992C37.5737 3.38758 37.7737 4.176 37.7737 5.04519C37.7737 5.92977 37.5737 6.73358 37.1738 7.45662C36.7738 8.17967 36.2392 8.76041 35.57 9.19885C34.9008 9.6296 34.1624 9.84498 33.3547 9.84498ZM27.3434 19.2599C26.4973 19.2599 25.8627 19.1176 25.4397 18.833C25.0166 18.5561 24.8051 18.1254 24.8051 17.5408C24.8051 16.8793 24.9897 16.1716 25.3589 15.4178C25.7358 14.664 26.2896 13.9563 27.0204 13.2948C27.7511 12.6256 28.6434 12.0833 29.6972 11.668C30.7587 11.2449 31.974 11.0334 33.3432 11.0334C34.7123 11.0334 35.9238 11.2449 36.9776 11.668C38.0391 12.0833 38.9314 12.6256 39.6544 13.2948C40.3852 13.9563 40.939 14.664 41.3159 15.4178C41.6928 16.1716 41.8812 16.8793 41.8812 17.5408C41.8812 18.1254 41.6659 18.5561 41.2351 18.833C40.8121 19.1176 40.1813 19.2599 39.3429 19.2599H27.3434ZM17.5939 9.89113C17.3247 9.89113 17.0901 9.79498 16.8901 9.60268C16.6978 9.41038 16.6016 9.17578 16.6016 8.89887C16.6016 8.62965 16.6978 8.39889 16.8901 8.20659C17.0901 8.0066 17.3247 7.9066 17.5939 7.9066C17.8708 7.9066 18.1054 8.0066 18.2977 8.20659C18.49 8.39889 18.5861 8.62965 18.5861 8.89887C18.5861 9.17578 18.49 9.41038 18.2977 9.60268C18.1054 9.79498 17.8708 9.89113 17.5939 9.89113ZM21.4245 9.89113C21.1476 9.89113 20.913 9.79498 20.7207 9.60268C20.5284 9.41038 20.4322 9.17578 20.4322 8.89887C20.4322 8.62965 20.5284 8.39889 20.7207 8.20659C20.913 8.0066 21.1476 7.9066 21.4245 7.9066C21.6937 7.9066 21.9245 8.0066 22.1168 8.20659C22.3167 8.39889 22.4167 8.62965 22.4167 8.89887C22.4167 9.17578 22.3167 9.41038 22.1168 9.60268C21.9245 9.79498 21.6937 9.89113 21.4245 9.89113ZM25.232 9.89113C24.9628 9.89113 24.7282 9.79498 24.5282 9.60268C24.3359 9.41038 24.2397 9.17578 24.2397 8.89887C24.2397 8.62965 24.3359 8.39889 24.5282 8.20659C24.7282 8.0066 24.9628 7.9066 25.232 7.9066C25.5012 7.9066 25.732 8.0066 25.9243 8.20659C26.1243 8.39889 26.2243 8.62965 26.2243 8.89887C26.2243 9.17578 26.1243 9.41038 25.9243 9.60268C25.732 9.79498 25.5012 9.89113 25.232 9.89113Z" fill="black"/>
</svg>
