<svg width="19" height="19" viewBox="0 0 19 19" fill="none" xmlns="http://www.w3.org/2000/svg">
<path d="M3.5625 1.1875H1.1875C0.530664 1.1875 0 1.71816 0 2.375V3.5625H4.75V2.375C4.75 1.71816 4.21934 1.1875 3.5625 1.1875Z" fill="black"/>
<path d="M0 16.625C0 17.2818 0.530664 17.8125 1.1875 17.8125H3.5625C4.21934 17.8125 4.75 17.2818 4.75 16.625V15.4375H0V16.625Z" fill="black"/>
<path d="M4.75 4.75H0V14.25H4.75V4.75Z" fill="black"/>
<path d="M9.50001 1.1875H7.12501C6.46817 1.1875 5.93751 1.71816 5.93751 2.375V3.5625H10.6875V2.375C10.6875 1.71816 10.1568 1.1875 9.50001 1.1875Z" fill="black"/>
<path d="M5.93751 16.625C5.93751 17.2818 6.46817 17.8125 7.12501 17.8125H9.50001C10.1568 17.8125 10.6875 17.2818 10.6875 16.625V15.4375H5.93751V16.625Z" fill="black"/>
<path d="M10.6875 4.75H5.93751V14.25H10.6875V4.75Z" fill="black"/>
<path d="M13.3252 1.30628L12.1748 1.60686C11.5402 1.77385 11.158 2.41956 11.325 3.05413L11.6256 4.20452L15.073 3.30647L14.7725 2.15608C14.6055 1.52151 13.9598 1.13928 13.3252 1.30628Z" fill="black"/>
<path d="M15.3729 4.45452L11.9251 5.35155L14.3172 14.5457L17.765 13.6486L15.3729 4.45452Z" fill="black"/>
<path d="M14.9134 16.844C15.0804 17.4786 15.7261 17.8608 16.3606 17.6938L17.511 17.3932C18.1456 17.2262 18.5278 16.5805 18.3608 15.946L18.0602 14.7956L14.6128 15.6936L14.9134 16.844Z" fill="black"/>
</svg>
