<svg width="28" height="18" viewBox="0 0 28 18" fill="none" xmlns="http://www.w3.org/2000/svg">
<g id="Property 1=Auge">
<g id="&#244;&#128;&#139;&#174;">
<path d="M14.0052 11.1282C13.4268 11.1282 12.931 10.92 12.5179 10.5035C12.1048 10.08 11.8982 9.57882 11.8982 9C11.8982 8.41412 12.1048 7.91294 12.5179 7.49647C12.931 7.07294 13.4268 6.86118 14.0052 6.86118C14.5767 6.86118 15.069 7.07294 15.4821 7.49647C15.8952 7.91294 16.1018 8.41412 16.1018 9C16.1018 9.57882 15.8952 10.08 15.4821 10.5035C15.069 10.92 14.5767 11.1282 14.0052 11.1282Z" fill="black"/>
<path fill-rule="evenodd" clip-rule="evenodd" d="M14.0052 18C12.6418 18 11.3508 17.8306 10.1321 17.4918C8.91332 17.1529 7.78409 16.7047 6.74437 16.1471C5.70466 15.5894 4.76823 14.9753 3.93508 14.3047C3.10882 13.6341 2.39961 12.96 1.80745 12.2824C1.22218 11.6047 0.774622 10.98 0.464773 10.4082C0.154924 9.82941 0 9.36 0 9C0 8.64 0.154924 8.17412 0.464773 7.60235C0.774622 7.02353 1.22218 6.39529 1.80745 5.71765C2.39961 5.04 3.10882 4.36588 3.93508 3.69529C4.76823 3.02471 5.70466 2.41059 6.74437 1.85294C7.78409 1.29529 8.91332 0.847059 10.1321 0.508235C11.3508 0.169412 12.6418 0 14.0052 0C15.3823 0 16.6802 0.169412 17.8989 0.508235C19.1246 0.847059 20.2572 1.29529 21.2969 1.85294C22.3367 2.41059 23.2696 3.02471 24.0959 3.69529C24.9222 4.36588 25.6245 5.04 26.2029 5.71765C26.7881 6.39529 27.2323 7.02353 27.5352 7.60235C27.8451 8.17412 28 8.64 28 9C28 9.36 27.8451 9.82941 27.5352 10.4082C27.2323 10.98 26.7881 11.6047 26.2029 12.2824C25.6245 12.96 24.9222 13.6341 24.0959 14.3047C23.2765 14.9753 22.347 15.5894 21.3073 16.1471C20.2676 16.7047 19.1349 17.1529 17.9093 17.4918C16.6836 17.8306 15.3823 18 14.0052 18ZM16.2464 14.4424C15.551 14.7459 14.8039 14.8976 14.0052 14.8976C13.1996 14.8976 12.4456 14.7459 11.7433 14.4424C11.0478 14.1318 10.435 13.7047 9.90483 13.1612C9.38153 12.6106 8.9684 11.9824 8.66544 11.2765C8.36936 10.5635 8.22132 9.80471 8.22132 9C8.22132 8.17412 8.36936 7.40471 8.66544 6.69176C8.96151 5.97882 9.37465 5.35412 9.90483 4.81765C10.435 4.27412 11.0478 3.85412 11.7433 3.55765C12.4456 3.25412 13.1996 3.10235 14.0052 3.10235C14.8039 3.10235 15.551 3.25412 16.2464 3.55765C16.9487 3.85412 17.5615 4.27412 18.0848 4.81765C18.615 5.35412 19.0282 5.97882 19.3242 6.69176C19.6272 7.40471 19.7787 8.17412 19.7787 9C19.7787 9.80471 19.6272 10.5635 19.3242 11.2765C19.0282 11.9824 18.615 12.6106 18.0848 13.1612C17.5615 13.7047 16.9487 14.1318 16.2464 14.4424Z" fill="black"/>
</g>
</g>
</svg>
