<svg width="19" height="19" viewBox="0 0 19 19" fill="none" xmlns="http://www.w3.org/2000/svg">
<g id="Property 1=Check">
<path id="&#244;&#128;&#131;&#178;&#244;&#128;&#131;&#179;" d="M3.24063 19C2.16042 19 1.34854 18.7317 0.804997 18.195C0.268332 17.6652 0 16.8671 0 15.8007V3.19935C0 2.1329 0.268332 1.33478 0.804997 0.804997C1.34854 0.268332 2.16042 0 3.24063 0H15.7594C16.8396 0 17.648 0.268332 18.1847 0.804997C18.7282 1.33478 19 2.1329 19 3.19935V15.8007C19 16.8671 18.7282 17.6652 18.1847 18.195C17.648 18.7317 16.8396 19 15.7594 19H3.24063ZM3.26127 17.3384H15.7387C16.2479 17.3384 16.64 17.2042 16.9153 16.9359C17.1974 16.6607 17.3384 16.2548 17.3384 15.7181V3.28191C17.3384 2.74525 17.1974 2.34275 16.9153 2.07442C16.64 1.7992 16.2479 1.6616 15.7387 1.6616H3.26127C2.74525 1.6616 2.34963 1.7992 2.07442 2.07442C1.7992 2.34275 1.6616 2.74525 1.6616 3.28191V15.7181C1.6616 16.2548 1.7992 16.6607 2.07442 16.9359C2.34963 17.2042 2.74525 17.3384 3.26127 17.3384ZM8.38023 14.3764C8.20822 14.3764 8.04997 14.3386 7.90549 14.2629C7.76788 14.1872 7.63371 14.0668 7.50299 13.9017L4.98479 10.8055C4.82654 10.5922 4.74742 10.379 4.74742 10.1657C4.74742 9.93862 4.8231 9.74597 4.97447 9.58772C5.13272 9.4226 5.32193 9.34003 5.5421 9.34003C5.68658 9.34003 5.81731 9.37099 5.93427 9.43292C6.05812 9.48796 6.18197 9.59804 6.30581 9.76317L8.33895 12.3949L12.6219 5.52146C12.8146 5.21184 13.0554 5.05703 13.3444 5.05703C13.5577 5.05703 13.7503 5.12584 13.9223 5.26344C14.0943 5.40105 14.1803 5.58338 14.1803 5.81043C14.1803 5.92739 14.1528 6.04436 14.0978 6.16132C14.0496 6.27141 13.9946 6.37462 13.9326 6.47094L9.21619 13.9017C9.00978 14.2182 8.73112 14.3764 8.38023 14.3764Z" fill="black"/>
</g>
</svg>
