<svg width="19" height="19" viewBox="0 0 19 19" fill="none" xmlns="http://www.w3.org/2000/svg">
<g id="Property 1=Check OK">
<path id="&#244;&#128;&#131;&#178;&#244;&#128;&#131;&#179;" d="M3.24063 19C2.16042 19 1.34854 18.7317 0.804997 18.195C0.268332 17.6652 0 16.8671 0 15.8007V3.19935C0 2.1329 0.268332 1.33478 0.804997 0.804997C1.34854 0.268332 2.16042 0 3.24063 0H15.7594C16.8396 0 17.648 0.268332 18.1847 0.804997C18.7282 1.33478 19 2.1329 19 3.19935V15.8007C19 16.8671 18.7282 17.6652 18.1847 18.195C17.648 18.7317 16.8396 19 15.7594 19H3.24063ZM8.34927 14.5209C8.52815 14.5209 8.68984 14.4796 8.83433 14.3971C8.97882 14.3145 9.1061 14.1907 9.21619 14.0255L14.0668 6.37806C14.1287 6.27485 14.1872 6.16477 14.2423 6.0478C14.2973 5.93083 14.3248 5.81387 14.3248 5.6969C14.3248 5.45609 14.2354 5.26688 14.0565 5.12928C13.8776 4.98479 13.6781 4.91255 13.4579 4.91255C13.1552 4.91255 12.9075 5.07079 12.7148 5.38729L8.30798 12.4671L6.21293 9.76317C6.0822 9.59116 5.95492 9.4742 5.83107 9.41228C5.7141 9.35035 5.57994 9.31939 5.42857 9.31939C5.19464 9.31939 4.99855 9.4054 4.8403 9.5774C4.68206 9.74253 4.60293 9.94206 4.60293 10.176C4.60293 10.293 4.62357 10.4099 4.66486 10.5269C4.71302 10.637 4.77494 10.7436 4.85062 10.8468L7.44106 14.0255C7.57867 14.2044 7.71972 14.3317 7.8642 14.4074C8.00869 14.4831 8.17038 14.5209 8.34927 14.5209Z" fill="black"/>
</g>
</svg>
