<svg width="19" height="19" viewBox="0 0 19 19" fill="none" xmlns="http://www.w3.org/2000/svg">
<g id="Property 1=Checkbox 2">
<path id="&#244;&#128;&#131;&#178;&#244;&#128;&#131;&#179;" d="M3.24063 19C2.16042 19 1.34854 18.7317 0.804997 18.195C0.268332 17.6652 0 16.8671 0 15.8007V3.19935C0 2.1329 0.268332 1.33478 0.804997 0.804997C1.34854 0.268332 2.16042 0 3.24063 0H15.7594C16.8396 0 17.648 0.268332 18.1847 0.804997C18.7282 1.33478 19 2.1329 19 3.19935V15.8007C19 16.8671 18.7282 17.6652 18.1847 18.195C17.648 18.7317 16.8396 19 15.7594 19H3.24063ZM3.26127 17.3384H15.7387C16.2479 17.3384 16.64 17.2042 16.9153 16.9359C17.1974 16.6607 17.3384 16.2548 17.3384 15.7181V3.28191C17.3384 2.74525 17.1974 2.34275 16.9153 2.07442C16.64 1.7992 16.2479 1.6616 15.7387 1.6616H3.26127C2.74525 1.6616 2.34963 1.7992 2.07442 2.07442C1.7992 2.34275 1.6616 2.74525 1.6616 3.28191V15.7181C1.6616 16.2548 1.7992 16.6607 2.07442 16.9359C2.34963 17.2042 2.74525 17.3384 3.26127 17.3384Z" fill="black"/>
</g>
</svg>
