<svg width="17" height="19" viewBox="0 0 17 19" fill="none" xmlns="http://www.w3.org/2000/svg">
<g id="Property 1=Lexikon A">
<g id="Vector">
<path d="M17 0.95C17 0.2375 16.6304 0.07259 16.4396 0H2.63673C2.21584 0.0193142 1.98671 0.0487183 1.59592 0.167647C1.2881 0.278171 1.11182 0.360204 0.832653 0.558823C0.645263 0.717701 0.489237 0.815196 0.346939 1.00588C0.216985 1.20554 0.0907339 1.34656 0 1.67647V5.7H17C17 5.7 17 5.225 17 4.5125C17 3.8 16.7639 3.8 16.7639 3.8C16.7639 3.8 16.6286 3.68824 16.0045 3.68824C12.7597 3.68824 2.68317 3.68824 2.42857 3.68823C2.125 3.68823 1.42079 3.27456 1.41667 2.85C1.41254 2.42544 1.88889 1.9 2.36111 1.9C2.83333 1.9 9.44444 1.9 9.44444 1.9H16.5278C16.7473 1.82927 17 1.6625 17 0.95Z" fill="black"/>
<path fill-rule="evenodd" clip-rule="evenodd" d="M17 17.1V5.7H0V17.4319C0.182535 17.9122 0.347661 18.2249 0.699588 18.4773C1.08535 18.7764 1.40365 18.9066 1.88889 19H14.875C15.6349 18.9432 16.0158 18.8608 16.5278 18.525C16.9124 17.9904 16.9803 17.6728 17 17.1ZM12.75 16.578C12.75 16.5084 12.744 16.4388 12.7319 16.3692L9.39674 8.64396C9.2034 8.19158 9.01006 7.89579 8.81672 7.75659C8.69588 7.6522 8.51463 7.6 8.27295 7.6C8.14003 7.6232 8.03128 7.6406 7.94669 7.6522C7.63251 7.73339 7.35458 8.06398 7.11291 8.64396L3.83215 16.3692C3.7959 16.462 3.77778 16.5374 3.77778 16.5954C3.77778 16.6534 3.7959 16.7172 3.83215 16.7868C3.96508 16.9956 4.15842 17.1 4.41218 17.1C4.66594 17.1 4.83511 16.9782 4.9197 16.7346L5.78973 14.6293H10.6837L11.5718 16.7346C11.6685 16.9782 11.8618 17.1 12.1519 17.1C12.2969 17.1 12.4298 17.0478 12.5506 16.9434C12.611 16.9086 12.6594 16.8564 12.6956 16.7868C12.7319 16.7172 12.75 16.6476 12.75 16.578ZM6.13412 13.7071H10.3574L8.2367 8.59176L6.13412 13.7071Z" fill="black"/>
</g>
</g>
</svg>
