<svg width="19" height="19" viewBox="0 0 19 19" fill="none" xmlns="http://www.w3.org/2000/svg">
<g id="Property 1=Home">
<g id="Vector">
<path d="M9.5 11.8702C8.18833 11.8702 7.125 12.9342 7.125 14.2467V18.9997H11.875V14.2467C11.875 12.9342 10.8117 11.8702 9.5 11.8702Z" fill="black"/>
<path d="M13.4583 14.247V19H16.625C17.9367 19 19 17.936 19 16.6235V9.39824C19.0002 8.9867 18.8404 8.59124 18.5543 8.29556L11.8267 1.01796C10.6397 -0.267198 8.63621 -0.346105 7.35185 0.84169C7.29084 0.898131 7.23206 0.956912 7.17569 1.01796L0.459971 8.29318C0.165248 8.59009 -0.000111272 8.99164 5.61768e-08 9.41012V16.6235C5.61768e-08 17.936 1.06333 19 2.375 19H5.54165V14.247C5.55646 12.087 7.29938 10.323 9.40374 10.2722C11.5785 10.2197 13.4418 12.0137 13.4583 14.247Z" fill="black"/>
<path d="M9.5 11.8702C8.18833 11.8702 7.125 12.9342 7.125 14.2467V18.9997H11.875V14.2467C11.875 12.9342 10.8117 11.8702 9.5 11.8702Z" fill="black"/>
</g>
</g>
</svg>
