<svg width="26" height="29" viewBox="0 0 26 29" fill="none" xmlns="http://www.w3.org/2000/svg">
<g id="Vector" filter="url(#filter0_d_5731_3420)">
<path fill-rule="evenodd" clip-rule="evenodd" d="M19.2056 14.6853L18.8406 14.4749C19.005 13.581 19.005 12.6645 18.8406 11.7706L19.2056 11.5602C19.4863 11.3982 19.7323 11.1826 19.9296 10.9256C20.1269 10.6686 20.2717 10.3753 20.3557 10.0624C20.4396 9.7494 20.4611 9.42299 20.4189 9.10173C20.3768 8.78048 20.2717 8.47068 20.1098 8.19002C19.9479 7.90937 19.7323 7.66335 19.4753 7.46602C19.2183 7.26869 18.9249 7.12391 18.612 7.03995C18.299 6.95599 17.9726 6.93449 17.6514 6.97668C17.3301 7.01887 17.0203 7.12392 16.7397 7.28584L16.3739 7.49709C15.683 6.90684 14.8891 6.44927 14.032 6.14739V5.72572C14.032 5.07171 13.7722 4.44448 13.3098 3.98203C12.8473 3.51957 12.2201 3.25977 11.5661 3.25977C10.9121 3.25977 10.2849 3.51957 9.8224 3.98203C9.35995 4.44448 9.10014 5.07171 9.10014 5.72572V6.14739C8.24313 6.45035 7.44947 6.90904 6.75913 7.50038L6.39171 7.28748C5.8249 6.96048 5.1514 6.87203 4.51938 7.0416C3.88736 7.21116 3.34858 7.62486 3.02158 8.19167C2.69457 8.75848 2.60612 9.43197 2.77569 10.064C2.94526 10.696 3.35895 11.2348 3.92576 11.5618L4.29072 11.7722C4.12641 12.6662 4.12641 13.5826 4.29072 14.4766L3.92576 14.687C3.35895 15.014 2.94526 15.5528 2.77569 16.1848C2.60612 16.8168 2.69457 17.4903 3.02158 18.0571C3.34858 18.6239 3.88736 19.0376 4.51938 19.2072C5.1514 19.3767 5.8249 19.2883 6.39171 18.9613L6.75749 18.75C7.44858 19.3404 8.2428 19.798 9.10014 20.0997V20.5214C9.10014 21.1754 9.35995 21.8027 9.8224 22.2651C10.2849 22.7276 10.9121 22.9874 11.5661 22.9874C12.2201 22.9874 12.8473 22.7276 13.3098 22.2651C13.7722 21.8027 14.032 21.1754 14.032 20.5214V20.0997C14.8891 19.7968 15.6827 19.3381 16.3731 18.7468L16.7405 18.9588C17.3073 19.2858 17.9808 19.3743 18.6128 19.2047C19.2448 19.0351 19.7836 18.6215 20.1106 18.0546C20.4376 17.4878 20.5261 16.8143 20.3565 16.1823C20.1869 15.5503 19.7732 15.0115 19.2064 14.6845L19.2056 14.6853ZM9.73946 10.3903C10.2802 10.029 10.9158 9.83614 11.5661 9.83614C12.4381 9.83614 13.2744 10.1825 13.8911 10.7992C14.5077 11.4158 14.8541 12.2521 14.8541 13.1241C14.8541 13.7744 14.6612 14.4101 14.2999 14.9508C13.9387 15.4915 13.4252 15.9129 12.8244 16.1617C12.2236 16.4106 11.5625 16.4757 10.9247 16.3488C10.2869 16.222 9.70104 15.9088 9.24121 15.449C8.78139 14.9892 8.46824 14.4033 8.34138 13.7655C8.21451 13.1277 8.27962 12.4666 8.52848 11.8658C8.77734 11.265 9.19876 10.7515 9.73946 10.3903Z" stroke="#8A8A8E" stroke-width="0.459583" stroke-miterlimit="3.99393" shape-rendering="crispEdges"/>
</g>
<defs>
<filter id="filter0_d_5731_3420" x="0.117064" y="0.686156" width="25.6542" height="27.6323" filterUnits="userSpaceOnUse" color-interpolation-filters="sRGB">
<feFlood flood-opacity="0" result="BackgroundImageFix"/>
<feColorMatrix in="SourceAlpha" type="matrix" values="0 0 0 0 0 0 0 0 0 0 0 0 0 0 0 0 0 0 127 0" result="hardAlpha"/>
<feOffset dx="1.37875" dy="1.37875"/>
<feGaussianBlur stdDeviation="1.86131"/>
<feComposite in2="hardAlpha" operator="out"/>
<feColorMatrix type="matrix" values="0 0 0 0 0 0 0 0 0 0 0 0 0 0 0 0 0 0 0.73 0"/>
<feBlend mode="normal" in2="BackgroundImageFix" result="effect1_dropShadow_5731_3420"/>
<feBlend mode="normal" in="SourceGraphic" in2="effect1_dropShadow_5731_3420" result="shape"/>
</filter>
</defs>
</svg>
