<svg width="19" height="22" viewBox="0 0 19 22" fill="none" xmlns="http://www.w3.org/2000/svg">
<path fill-rule="evenodd" clip-rule="evenodd" d="M17.6778 12.2306L17.2871 12.0054C17.463 11.0484 17.463 10.0674 17.2871 9.11049L17.6778 8.88524C17.9782 8.71191 18.2416 8.48111 18.4528 8.20601C18.664 7.93091 18.819 7.61689 18.9089 7.2819C18.9988 6.9469 19.0218 6.59748 18.9766 6.25359C18.9315 5.9097 18.819 5.57808 18.6457 5.27764C18.4724 4.97721 18.2416 4.71386 17.9665 4.50263C17.6914 4.2914 17.3773 4.13642 17.0423 4.04654C16.7074 3.95667 16.3579 3.93365 16.014 3.97881C15.6702 4.02398 15.3385 4.13643 15.0381 4.30975L14.6465 4.53589C13.907 3.90405 13.0571 3.41423 12.1397 3.09109V2.6397C12.1397 1.93961 11.8616 1.26819 11.3666 0.773151C10.8715 0.278111 10.2001 0 9.5 0C8.79991 0 8.12849 0.278111 7.63345 0.773151C7.13841 1.26819 6.8603 1.93961 6.8603 2.6397V3.09109C5.9429 3.41539 5.09332 3.90641 4.35434 4.53941L3.96103 4.31151C3.35428 3.96147 2.63333 3.86679 1.95677 4.0483C1.28022 4.22982 0.703479 4.67266 0.353433 5.2794C0.0033868 5.88615 -0.0912932 6.6071 0.0902215 7.28366C0.271736 7.96021 0.714577 8.53695 1.32132 8.887L1.712 9.11225C1.53612 10.0692 1.53612 11.0502 1.712 12.0071L1.32132 12.2324C0.714577 12.5824 0.271736 13.1592 0.0902215 13.8357C-0.0912932 14.5123 0.0033868 15.2332 0.353433 15.84C0.703479 16.4467 1.28022 16.8896 1.95677 17.0711C2.63333 17.2526 3.35428 17.1579 3.96103 16.8079L4.35258 16.5817C5.09237 17.2137 5.94254 17.7035 6.8603 18.0265V18.4779C6.8603 19.178 7.13841 19.8494 7.63345 20.3445C8.12849 20.8395 8.79991 21.1176 9.5 21.1176C10.2001 21.1176 10.8715 20.8395 11.3666 20.3445C11.8616 19.8494 12.1397 19.178 12.1397 18.4779V18.0265C13.0571 17.7022 13.9067 17.2112 14.6457 16.5782L15.039 16.8052C15.6457 17.1553 16.3667 17.25 17.0432 17.0684C17.7198 16.8869 18.2965 16.4441 18.6466 15.8373C18.9966 15.2306 19.0913 14.5096 18.9098 13.8331C18.7283 13.1565 18.2854 12.5798 17.6787 12.2297L17.6778 12.2306ZM7.54466 7.63291C8.12345 7.24617 8.80393 7.03975 9.50005 7.03975C10.4335 7.03975 11.3287 7.41056 11.9888 8.07062C12.6488 8.73067 13.0196 9.6259 13.0196 10.5594C13.0196 11.2555 12.8132 11.9359 12.4265 12.5147C12.0397 13.0935 11.4901 13.5447 10.8469 13.811C10.2038 14.0774 9.49614 14.1471 8.81341 14.0113C8.13067 13.8755 7.50353 13.5403 7.01131 13.0481C6.51908 12.5559 6.18388 11.9287 6.04807 11.246C5.91227 10.5633 5.98197 9.85558 6.24836 9.21246C6.51475 8.56933 6.96586 8.01965 7.54466 7.63291Z" fill="black"/>
</svg>
