<svg width="18" height="20" viewBox="0 0 18 20" fill="none" xmlns="http://www.w3.org/2000/svg">
<path d="M2.05225 4.19775C2.10758 3.79378 2.2487 3.47835 2.47559 3.25146C2.70247 3.02458 3.04557 2.91113 3.50488 2.91113H14.4951C14.9544 2.91113 15.2948 3.02458 15.5161 3.25146C15.743 3.47835 15.8869 3.79378 15.9478 4.19775H2.05225ZM3.7207 1.73242C3.75391 1.35059 3.88395 1.06006 4.11084 0.86084C4.33773 0.656087 4.65592 0.553711 5.06543 0.553711H12.9263C13.3358 0.553711 13.654 0.656087 13.8809 0.86084C14.1077 1.06006 14.2378 1.35059 14.271 1.73242H3.7207ZM1.88623 19.6206C1.35498 19.6206 0.931641 19.4629 0.616211 19.1475C0.300781 18.8376 0.143066 18.4225 0.143066 17.9023V7.29395C0.143066 6.76823 0.300781 6.34766 0.616211 6.03223C0.931641 5.7168 1.35498 5.55908 1.88623 5.55908H16.1138C16.645 5.55908 17.0684 5.7168 17.3838 6.03223C17.6992 6.34766 17.8569 6.76823 17.8569 7.29395V17.9023C17.8569 18.4225 17.6992 18.8376 17.3838 19.1475C17.0684 19.4629 16.645 19.6206 16.1138 19.6206H1.88623ZM1.89453 18.1182H2.71631C2.82145 18.1182 2.90446 18.085 2.96533 18.0186C3.0262 17.9577 3.05664 17.8774 3.05664 17.7778V17.0391C3.05664 16.945 3.0262 16.8647 2.96533 16.7983C2.90446 16.7319 2.82145 16.6987 2.71631 16.6987H1.87793C1.77832 16.6987 1.69531 16.7319 1.62891 16.7983C1.56803 16.8647 1.5376 16.945 1.5376 17.0391V17.7612C1.5376 17.9992 1.65658 18.1182 1.89453 18.1182ZM1.87793 15.6943H2.71631C2.82145 15.6943 2.90446 15.6639 2.96533 15.603C3.0262 15.5366 3.05664 15.4564 3.05664 15.3623V14.6401C3.05664 14.5405 3.0262 14.4603 2.96533 14.3994C2.90446 14.333 2.82145 14.2998 2.71631 14.2998H1.87793C1.65104 14.2998 1.5376 14.4132 1.5376 14.6401V15.3623C1.5376 15.4564 1.56803 15.5366 1.62891 15.603C1.69531 15.6639 1.77832 15.6943 1.87793 15.6943ZM1.87793 13.3037H2.71631C2.82145 13.3037 2.90446 13.2705 2.96533 13.2041C3.0262 13.1322 3.05664 13.0492 3.05664 12.9551V12.2412C3.05664 12.1361 3.0262 12.0503 2.96533 11.9839C2.90446 11.9175 2.82145 11.8843 2.71631 11.8843H1.87793C1.77279 11.8843 1.68978 11.9175 1.62891 11.9839C1.56803 12.0503 1.5376 12.1361 1.5376 12.2412V12.9551C1.5376 13.0492 1.56803 13.1322 1.62891 13.2041C1.69531 13.2705 1.77832 13.3037 1.87793 13.3037ZM1.87793 10.8965H2.71631C2.82145 10.8965 2.90446 10.8633 2.96533 10.7969C3.0262 10.7305 3.05664 10.653 3.05664 10.5645V9.82568C3.05664 9.73161 3.0262 9.65137 2.96533 9.58496C2.90446 9.51855 2.82145 9.48535 2.71631 9.48535H1.87793C1.77279 9.48535 1.68978 9.51855 1.62891 9.58496C1.56803 9.65137 1.5376 9.73161 1.5376 9.82568V10.5645C1.5376 10.653 1.56803 10.7305 1.62891 10.7969C1.69531 10.8633 1.77832 10.8965 1.87793 10.8965ZM1.87793 8.47266H2.71631C2.82145 8.47266 2.90446 8.44222 2.96533 8.38135C3.0262 8.31494 3.05664 8.23747 3.05664 8.14893V7.41016C3.05664 7.30501 3.0262 7.22201 2.96533 7.16113C2.90446 7.09473 2.82145 7.06152 2.71631 7.06152H1.89453C1.65658 7.06152 1.5376 7.18327 1.5376 7.42676V8.14893C1.5376 8.23747 1.56803 8.31494 1.62891 8.38135C1.69531 8.44222 1.77832 8.47266 1.87793 8.47266ZM4.66699 18.1182H13.2998C13.416 18.1182 13.5101 18.0822 13.582 18.0103C13.654 17.9383 13.6899 17.8415 13.6899 17.7197V13.752C13.6899 13.6302 13.654 13.5361 13.582 13.4697C13.5101 13.3978 13.416 13.3618 13.2998 13.3618H4.66699C4.55632 13.3618 4.46501 13.3978 4.39307 13.4697C4.32113 13.5361 4.28516 13.6302 4.28516 13.752V17.7197C4.28516 17.8415 4.32113 17.9383 4.39307 18.0103C4.46501 18.0822 4.55632 18.1182 4.66699 18.1182ZM4.66699 11.8345H13.2998C13.416 11.8345 13.5101 11.7985 13.582 11.7266C13.654 11.6546 13.6899 11.5605 13.6899 11.4443V7.45166C13.6899 7.33545 13.654 7.24137 13.582 7.16943C13.5101 7.09749 13.416 7.06152 13.2998 7.06152H4.66699C4.55632 7.06152 4.46501 7.09749 4.39307 7.16943C4.32113 7.24137 4.28516 7.33545 4.28516 7.45166V11.4443C4.28516 11.5605 4.32113 11.6546 4.39307 11.7266C4.46501 11.7985 4.55632 11.8345 4.66699 11.8345ZM15.2505 18.1182H16.0723C16.3158 18.1182 16.4375 17.9992 16.4375 17.7612V17.0391C16.4375 16.945 16.4043 16.8647 16.3379 16.7983C16.277 16.7319 16.194 16.6987 16.0889 16.6987H15.2505C15.1509 16.6987 15.0706 16.7319 15.0098 16.7983C14.9489 16.8647 14.9185 16.945 14.9185 17.0391V17.7778C14.9185 17.8774 14.9489 17.9577 15.0098 18.0186C15.0706 18.085 15.1509 18.1182 15.2505 18.1182ZM15.2505 15.6943H16.0889C16.194 15.6943 16.277 15.6639 16.3379 15.603C16.4043 15.5366 16.4375 15.4564 16.4375 15.3623V14.6401C16.4375 14.4132 16.3213 14.2998 16.0889 14.2998H15.2505C15.0291 14.2998 14.9185 14.4132 14.9185 14.6401V15.3623C14.9185 15.4564 14.9489 15.5366 15.0098 15.603C15.0706 15.6639 15.1509 15.6943 15.2505 15.6943ZM15.2505 13.3037H16.0889C16.194 13.3037 16.277 13.2705 16.3379 13.2041C16.4043 13.1322 16.4375 13.0492 16.4375 12.9551V12.2412C16.4375 12.1361 16.4043 12.0503 16.3379 11.9839C16.277 11.9175 16.194 11.8843 16.0889 11.8843H15.2505C15.1509 11.8843 15.0706 11.9175 15.0098 11.9839C14.9489 12.0503 14.9185 12.1361 14.9185 12.2412V12.9551C14.9185 13.0492 14.9489 13.1322 15.0098 13.2041C15.0706 13.2705 15.1509 13.3037 15.2505 13.3037ZM15.2505 10.8965H16.0889C16.194 10.8965 16.277 10.8633 16.3379 10.7969C16.4043 10.7305 16.4375 10.653 16.4375 10.5645V9.82568C16.4375 9.73161 16.4043 9.65137 16.3379 9.58496C16.277 9.51855 16.194 9.48535 16.0889 9.48535H15.2505C15.1509 9.48535 15.0706 9.51855 15.0098 9.58496C14.9489 9.65137 14.9185 9.73161 14.9185 9.82568V10.5645C14.9185 10.653 14.9489 10.7305 15.0098 10.7969C15.0706 10.8633 15.1509 10.8965 15.2505 10.8965ZM15.2505 8.47266H16.0889C16.194 8.47266 16.277 8.44222 16.3379 8.38135C16.4043 8.31494 16.4375 8.23747 16.4375 8.14893V7.42676C16.4375 7.18327 16.3158 7.06152 16.0723 7.06152H15.2505C15.0291 7.06152 14.9185 7.17773 14.9185 7.41016V8.14893C14.9185 8.23747 14.9489 8.31494 15.0098 8.38135C15.0706 8.44222 15.1509 8.47266 15.2505 8.47266Z" fill="black"/>
</svg>
